<?xml version="1.0" encoding="UTF-8" standalone="no"?>
<!DOCTYPE svg PUBLIC "-//W3C//DTD SVG 1.1//EN" "http://www.w3.org/Graphics/SVG/1.1/DTD/svg11.dtd">
<svg width="100%" height="100%" viewBox="0 0 155 151" version="1.1" xmlns="http://www.w3.org/2000/svg" xmlns:xlink="http://www.w3.org/1999/xlink" xml:space="preserve" xmlns:serif="http://www.serif.com/" style="fill-rule:evenodd;clip-rule:evenodd;stroke-linecap:round;stroke-linejoin:round;stroke-miterlimit:10;">
    <g transform="matrix(0.75,0,0,0.75,0,0)">
        <g transform="matrix(4.16667,0,0,4.16667,5.43333,139.181)">
            <path d="M0,-5.705L46.847,-5.705C46.847,-5.705 45.419,0 23.423,0C1.428,0 0,-5.705 0,-5.705Z" style="fill:none;fill-rule:nonzero;stroke:rgb(29,78,156);stroke-width:2.61px;"/>
        </g>
        <g transform="matrix(-0.331098,4.15349,4.15349,0.331098,127.832,83.4141)">
            <path d="M-2.8,-2.759C-1.215,-2.458 0.579,-2.397 2.561,-2.759" style="fill:none;fill-rule:nonzero;stroke:rgb(29,78,156);stroke-width:2.61px;"/>
        </g>
        <g transform="matrix(3.36014,2.46386,2.46386,-3.36014,146.463,67.4611)">
            <path d="M-0.437,-1.336L4.081,-1.336" style="fill:none;fill-rule:nonzero;stroke:rgb(29,78,156);stroke-width:2.61px;"/>
        </g>
        <g transform="matrix(4.16667,0,0,4.16667,91.7892,22.6415)">
            <path d="M0,17.89C-0.333,19.527 -1.177,21.063 -2.485,22.265L18.784,22.265C22.009,20.51 23.374,18.098 23.374,15.434C23.374,10.753 20.065,6.845 15.659,5.922L15.672,5.849L16.617,-0.28C16.903,-2.097 15.66,-3.803 13.843,-4.089C12.025,-4.375 10.32,-3.133 10.035,-1.315L8.827,6.489C8.643,7.659 8.407,8.895 9.236,9.622C9.27,9.66 10.408,10.358 10.445,10.395L11.979,11.576L6.206,11.596L6.123,11.576C5.594,6.712 2.709,3.621 2.528,3.431C1.574,2.434 -0.008,2.398 -1.006,3.353C-2.003,4.307 -2.039,5.888 -1.085,6.886C-1.043,6.931 3.123,11.398 0.061,17.791L0,17.89Z" style="fill:none;fill-rule:nonzero;stroke:rgb(29,78,156);stroke-width:2.61px;"/>
        </g>
        <g transform="matrix(4.16667,0,0,4.16667,35.2963,52.0061)">
            <path d="M0,15.217L11.068,15.217C14.226,12.316 14.635,7.431 11.899,4.053C9.053,0.541 3.899,0 0.387,2.846C-3.125,5.691 -3.666,10.845 -0.82,14.358C-0.566,14.672 -0.288,14.952 0,15.217Z" style="fill:none;fill-rule:nonzero;stroke:rgb(29,78,156);stroke-width:2.61px;"/>
        </g>
        <g transform="matrix(-4.16667,0,0,4.16667,69.3121,195.87)">
            <path d="M-16.87,-13.604L0,-13.604C6.415,-9.791 7.288,0 7.288,0L-24.158,0C-24.158,0 -23.286,-9.789 -16.87,-13.604Z" style="fill:none;fill-rule:nonzero;stroke:rgb(29,78,156);stroke-width:2.61px;"/>
        </g>
        <g transform="matrix(-4.16667,0,0,4.16667,2100.57,-793.034)">
            <rect x="476.223" y="228.469" width="10.809" height="5.316" style="fill:none;stroke:rgb(29,78,156);stroke-width:2.61px;"/>
        </g>
    </g>
</svg>
