<?xml version="1.0" encoding="UTF-8" standalone="no"?>
<!DOCTYPE svg PUBLIC "-//W3C//DTD SVG 1.1//EN" "http://www.w3.org/Graphics/SVG/1.1/DTD/svg11.dtd">
<svg width="100%" height="100%" viewBox="0 0 158 153" version="1.1" xmlns="http://www.w3.org/2000/svg" xmlns:xlink="http://www.w3.org/1999/xlink" xml:space="preserve" xmlns:serif="http://www.serif.com/" style="fill-rule:evenodd;clip-rule:evenodd;stroke-linecap:round;stroke-linejoin:round;stroke-miterlimit:10;">
    <g transform="matrix(0.75,0,0,0.75,0,0)">
        <g transform="matrix(-3.35265,2.47403,2.47403,3.35265,108.49,137.444)">
            <path d="M-12.018,5.081L-1.642,5.081L-3.054,-5.827L-13.088,-3.187L-12.018,5.081Z" style="fill:none;fill-rule:nonzero;stroke:rgb(29,78,156);stroke-width:2.61px;"/>
        </g>
        <g transform="matrix(3.64242,-2.02334,-2.02334,-3.64242,173.545,124.921)">
            <rect x="-2.537" y="1.458" width="8.163" height="8.336" style="fill:none;stroke:rgb(29,78,156);stroke-width:2.61px;"/>
        </g>
        <g transform="matrix(3.64253,-2.02313,-2.02313,-3.64253,176.903,80.6856)">
            <path d="M-0.234,0.905L3.491,0.905" style="fill:none;fill-rule:nonzero;stroke:rgb(29,78,156);stroke-width:2.61px;"/>
        </g>
        <g transform="matrix(3.64253,-2.02313,-2.02313,-3.64253,193.77,111.051)">
            <path d="M-0.234,0.905L3.491,0.905" style="fill:none;fill-rule:nonzero;stroke:rgb(29,78,156);stroke-width:2.61px;"/>
        </g>
        <g transform="matrix(3.64253,-2.02315,-2.02315,-3.64253,167.213,107.803)">
            <path d="M-0.121,0.468L1.808,0.469" style="fill:none;fill-rule:nonzero;stroke:rgb(29,78,156);stroke-width:2.61px;"/>
        </g>
        <g transform="matrix(4.16667,0,0,4.16667,67.8958,72.6375)">
            <path d="M0,-16.129C0,-9.715 9.125,-4.524 20.402,-4.524L20.402,0" style="fill:none;fill-rule:nonzero;stroke:rgb(29,78,156);stroke-width:2.61px;"/>
        </g>
        <g transform="matrix(-3.24301,2.6161,2.6161,3.24301,94.3465,92.313)">
            <path d="M9.006,-15.84C5.105,-16.257 1.612,-13.439 1.194,-9.538L9.006,0.145C10.043,1.431 9.842,3.316 8.555,4.354L7.334,5.339" style="fill:none;fill-rule:nonzero;stroke:rgb(29,78,156);stroke-width:2.61px;"/>
        </g>
        <g transform="matrix(4.16667,0,0,4.16667,5.43333,201.435)">
            <path d="M0,-28.428L0,-24.796C0,-20.692 1.572,-14.457 4.393,-11.477L11.565,-3.901C14.762,-0.524 19.951,0 23.759,-2.67L29.272,-8.292" style="fill:none;fill-rule:nonzero;stroke:rgb(29,78,156);stroke-width:2.61px;"/>
        </g>
        <g transform="matrix(4.16667,0,0,4.16667,57.0096,165.835)">
            <path d="M0,-2.898C2.898,0 7.589,0 10.487,-2.898" style="fill:none;fill-rule:nonzero;stroke:rgb(29,78,156);stroke-width:2.61px;"/>
        </g>
    </g>
</svg>
