<?xml version="1.0" encoding="UTF-8" standalone="no"?>
<!DOCTYPE svg PUBLIC "-//W3C//DTD SVG 1.1//EN" "http://www.w3.org/Graphics/SVG/1.1/DTD/svg11.dtd">
<svg width="100%" height="100%" viewBox="0 0 165 150" version="1.1" xmlns="http://www.w3.org/2000/svg" xmlns:xlink="http://www.w3.org/1999/xlink" xml:space="preserve" xmlns:serif="http://www.serif.com/" style="fill-rule:evenodd;clip-rule:evenodd;stroke-linecap:round;stroke-linejoin:round;stroke-miterlimit:10;">
    <g transform="matrix(0.75,0,0,0.75,0,0)">
        <g id="Fito" transform="matrix(4.16667,0,0,4.16667,-599.477,-1455.3)">
            <g transform="matrix(1,0,0,1,166.863,386.103)">
                <path d="M0,-2.017L-9.323,7.306C-12.11,10.093 -16.629,10.093 -19.416,7.306C-22.203,4.519 -22.203,0 -19.416,-2.787L-10.093,-12.11L0,-2.017Z" style="fill:none;fill-rule:nonzero;stroke:rgb(29,78,156);stroke-width:2.96px;"/>
            </g>
            <g transform="matrix(1,0,0,1,173.377,386.103)">
                <path d="M0,-2.017L9.323,7.306C12.11,10.093 16.629,10.093 19.416,7.306C22.203,4.519 22.203,0 19.416,-2.787L10.093,-12.11L0,-2.017Z" style="fill:none;fill-rule:nonzero;stroke:rgb(29,78,156);stroke-width:2.96px;"/>
            </g>
            <g transform="matrix(1,0,0,1,153.818,367.055)">
                <path d="M0,-16.302C10.43,-16.302 16.302,-10.43 16.302,0C5.872,0 0,-5.872 0,-16.302Z" style="fill:none;fill-rule:nonzero;stroke:rgb(29,78,156);stroke-width:2.96px;"/>
            </g>
            <g transform="matrix(0.707107,0.707107,0.707107,-0.707107,166.609,358.582)">
                <path d="M-1.453,-3.507L8.468,-3.507" style="fill:none;fill-rule:nonzero;stroke:rgb(29,78,156);stroke-width:2.96px;"/>
            </g>
            <g transform="matrix(1,0,0,1,186.422,367.055)">
                <path d="M0,-16.302C-10.43,-16.302 -16.302,-10.43 -16.302,0C-5.872,0 0,-5.872 0,-16.302Z" style="fill:none;fill-rule:nonzero;stroke:rgb(29,78,156);stroke-width:2.96px;"/>
            </g>
            <g transform="matrix(-0.707107,0.707107,0.707107,0.707107,173.628,368.507)">
                <path d="M-8.468,-3.507L1.453,-3.507" style="fill:none;fill-rule:nonzero;stroke:rgb(29,78,156);stroke-width:2.96px;"/>
            </g>
            <g transform="matrix(0,1,1,0,175.936,372.872)">
                <path d="M-5.815,-5.815L5.815,-5.815" style="fill:none;fill-rule:nonzero;stroke:rgb(29,78,156);stroke-width:2.96px;"/>
            </g>
        </g>
    </g>
</svg>
