<?xml version="1.0" encoding="UTF-8" standalone="no"?>
<!DOCTYPE svg PUBLIC "-//W3C//DTD SVG 1.1//EN" "http://www.w3.org/Graphics/SVG/1.1/DTD/svg11.dtd">
<svg width="100%" height="100%" viewBox="0 0 82 192" version="1.1" xmlns="http://www.w3.org/2000/svg" xmlns:xlink="http://www.w3.org/1999/xlink" xml:space="preserve" xmlns:serif="http://www.serif.com/" style="fill-rule:evenodd;clip-rule:evenodd;stroke-linecap:round;stroke-linejoin:round;stroke-miterlimit:10;">
    <g transform="matrix(0.75,0,0,0.75,0,0)">
        <g id="Flors" transform="matrix(4.16667,0,0,4.16667,-654.786,-2057.56)">
            <g transform="matrix(1,0,0,1,177.251,519.595)">
                <path d="M0,34.038L-14.262,34.038C-16.669,34.038 -18.62,32.087 -18.62,29.68L-18.62,7.291C-18.62,3.264 -15.356,0 -11.329,0L-2.932,0C1.094,0 4.358,3.264 4.358,7.291L4.358,29.68C4.358,32.087 2.407,34.038 0,34.038Z" style="fill:none;fill-rule:nonzero;stroke:rgb(29,78,156);stroke-width:2.96px;"/>
            </g>
            <g transform="matrix(1,0,0,1,158.631,529.795)">
                <path d="M0,0L22.979,0" style="fill:none;fill-rule:nonzero;stroke:rgb(29,78,156);stroke-width:2.96px;"/>
            </g>
            <g transform="matrix(1,0,0,1,158.631,544.663)">
                <path d="M0,0L22.979,0" style="fill:none;fill-rule:nonzero;stroke:rgb(29,78,156);stroke-width:2.96px;"/>
            </g>
            <g transform="matrix(-1,0,0,1,340.24,-154.107)">
                <rect x="165.374" y="671.015" width="9.492" height="2.627" style="fill:none;stroke:rgb(29,78,156);stroke-width:2.96px;"/>
            </g>
            <g transform="matrix(1,0,0,1,174.84,507.368)">
                <path d="M0,9.539L-9.44,9.539C-10.447,9.539 -11.264,8.723 -11.264,7.716L-11.264,1.824C-11.264,0.817 -10.447,0 -9.44,0L0,0C1.007,0 1.823,0.817 1.823,1.824L1.823,7.716C1.823,8.723 1.007,9.539 0,9.539Z" style="fill:none;fill-rule:nonzero;stroke:rgb(29,78,156);stroke-width:2.96px;"/>
            </g>
            <g transform="matrix(1,0,0,1,173.092,495.296)">
                <path d="M0,12.119L-5.944,12.119L-5.944,2.972C-5.944,1.331 -4.614,0 -2.972,0C-1.331,0 0,1.331 0,2.972L0,12.119Z" style="fill:none;fill-rule:nonzero;stroke:rgb(29,78,156);stroke-width:2.96px;"/>
            </g>
        </g>
    </g>
</svg>
