<?xml version="1.0" encoding="UTF-8" standalone="no"?>
<!DOCTYPE svg PUBLIC "-//W3C//DTD SVG 1.1//EN" "http://www.w3.org/Graphics/SVG/1.1/DTD/svg11.dtd">
<svg width="100%" height="100%" viewBox="0 0 157 153" version="1.1" xmlns="http://www.w3.org/2000/svg" xmlns:xlink="http://www.w3.org/1999/xlink" xml:space="preserve" xmlns:serif="http://www.serif.com/" style="fill-rule:evenodd;clip-rule:evenodd;stroke-linecap:round;stroke-linejoin:round;stroke-miterlimit:10;">
    <g transform="matrix(0.75,0,0,0.75,0,0)">
        <g transform="matrix(0,-4.16667,-4.16667,0,71.0363,9.86917)">
            <circle cx="-9.891" cy="-0.001" r="9.891" style="fill:none;stroke:rgb(29,78,156);stroke-width:2.61px;"/>
        </g>
        <g transform="matrix(0,-4.16667,-4.16667,0,71.0388,40.3963)">
            <path d="M-2.563,-2.563C-3.979,-2.563 -5.127,-1.415 -5.127,0.001C-5.127,1.416 -3.979,2.563 -2.563,2.563C-1.147,2.563 0.001,1.416 0.001,0.001C0.001,-1.415 -1.147,-2.563 -2.563,-2.563" style="fill:rgb(29,78,156);fill-rule:nonzero;"/>
        </g>
        <g transform="matrix(2.94628,-2.94628,-2.94628,-2.94628,80.6217,55.047)">
            <path d="M-0.953,2.3L5.553,2.3" style="fill:none;fill-rule:nonzero;stroke:rgb(29,78,156);stroke-width:2.61px;"/>
        </g>
        <g transform="matrix(4.16667,0,0,4.16667,181.187,21.3267)">
            <path d="M0,18.431C-2.915,18.431 -5.278,16.068 -5.278,13.153L-5.278,5.277C-5.278,2.363 -2.915,0 0,0C2.915,0 5.278,2.363 5.278,5.277L5.278,13.153C5.278,16.068 2.915,18.431 0,18.431Z" style="fill:none;fill-rule:nonzero;stroke:rgb(29,78,156);stroke-width:2.61px;"/>
        </g>
        <g transform="matrix(0,-4.16667,-4.16667,0,189.133,13.3792)">
            <path d="M-1.907,1.907L1.907,1.907" style="fill:none;fill-rule:nonzero;stroke:rgb(29,78,156);stroke-width:2.61px;"/>
        </g>
        <g transform="matrix(4.16667,0,0,4.16667,181.187,170.606)">
            <path d="M0,-17.396L0,-5.087C0,-2.278 -2.278,0 -5.087,0L-10.69,0" style="fill:none;fill-rule:nonzero;stroke:rgb(29,78,156);stroke-width:2.61px;"/>
        </g>
        <g transform="matrix(-4.16667,0,0,4.16667,2052.52,-1758.08)">
            <rect x="459.811" y="450.762" width="31.49" height="18.717" style="fill:none;stroke:rgb(29,78,156);stroke-width:2.61px;"/>
        </g>
        <g transform="matrix(0,-4.16667,-4.16667,0,84.9404,106.191)">
            <path d="M-3.337,3.337L3.337,3.337" style="fill:none;fill-rule:nonzero;stroke:rgb(29,78,156);stroke-width:2.61px;"/>
        </g>
    </g>
</svg>
