<?xml version="1.0" encoding="UTF-8" standalone="no"?>
<!DOCTYPE svg PUBLIC "-//W3C//DTD SVG 1.1//EN" "http://www.w3.org/Graphics/SVG/1.1/DTD/svg11.dtd">
<svg width="100%" height="100%" viewBox="0 0 135 166" version="1.1" xmlns="http://www.w3.org/2000/svg" xmlns:xlink="http://www.w3.org/1999/xlink" xml:space="preserve" xmlns:serif="http://www.serif.com/" style="fill-rule:evenodd;clip-rule:evenodd;stroke-linecap:round;stroke-linejoin:round;stroke-miterlimit:10;">
    <g transform="matrix(0.75,0,0,0.75,0,0)">
        <g id="Olis" transform="matrix(4.16667,0,0,4.16667,-619.332,-1791.12)">
            <g transform="matrix(-1,0,0,1,153.44,481.366)">
                <path d="M0,-10.3C1.652,-7.714 3.318,-4.628 3.318,-3.318C3.316,-1.427 1.889,0 0,0C-1.889,0 -3.316,-1.427 -3.318,-3.319C-3.316,-4.63 -1.652,-7.714 0,-10.3Z" style="fill:none;fill-rule:nonzero;stroke:rgb(29,78,156);stroke-width:2.96px;"/>
            </g>
            <g transform="matrix(-0.707107,0.707107,0.707107,0.707107,168.854,448.827)">
                <rect x="-12.912" y="-5.349" width="8.207" height="16.704" style="fill:none;stroke:rgb(29,78,156);stroke-width:2.96px;"/>
            </g>
            <g transform="matrix(1,0,0,1,188.736,436.415)">
                <path d="M0,2.987L-5.524,8.511L-12.193,1.841L-6.669,-3.682C-4.828,-5.524 -1.842,-5.524 0,-3.682C1.842,-1.841 1.842,1.145 0,2.987Z" style="fill:none;fill-rule:nonzero;stroke:rgb(29,78,156);stroke-width:2.96px;"/>
            </g>
            <g transform="matrix(1,0,0,1,158.775,457.357)">
                <path d="M0,-2.147C-1.654,-0.493 -5.809,5.729 -5.913,8.743L-3.1,11.556C-0.086,11.452 6.135,7.297 7.789,5.642L19.346,-5.914L11.556,-13.703L0,-2.147Z" style="fill:none;fill-rule:nonzero;stroke:rgb(29,78,156);stroke-width:2.96px;"/>
            </g>
        </g>
    </g>
</svg>
