<?xml version="1.0" encoding="UTF-8" standalone="no"?>
<!DOCTYPE svg PUBLIC "-//W3C//DTD SVG 1.1//EN" "http://www.w3.org/Graphics/SVG/1.1/DTD/svg11.dtd">
<svg width="100%" height="100%" viewBox="0 0 157 157" version="1.1" xmlns="http://www.w3.org/2000/svg" xmlns:xlink="http://www.w3.org/1999/xlink" xml:space="preserve" xmlns:serif="http://www.serif.com/" style="fill-rule:evenodd;clip-rule:evenodd;stroke-linecap:round;stroke-linejoin:round;stroke-miterlimit:10;">
    <g transform="matrix(0.75,0,0,0.75,0,0)">
        <g transform="matrix(0,-4.16667,-4.16667,0,95.0883,114.81)">
            <ellipse cx="-4.988" cy="0" rx="4.987" ry="4.988" style="fill:none;stroke:rgb(29,78,156);stroke-width:2.61px;"/>
        </g>
        <g transform="matrix(0,-4.16667,-4.16667,0,186.019,169.672)">
            <circle cx="-3.99" cy="0" r="3.99" style="fill:none;stroke:rgb(29,78,156);stroke-width:2.61px;"/>
        </g>
        <g transform="matrix(0,-4.16667,-4.16667,0,95.0887,68.2625)">
            <circle cx="-16.159" cy="0" r="16.159" style="fill:none;stroke:rgb(29,78,156);stroke-width:2.61px;"/>
        </g>
        <g transform="matrix(4.16667,0,0,4.16667,154.21,186.298)">
            <path d="M0,-19.907L11.624,-19.907L11.624,0" style="fill:none;fill-rule:nonzero;stroke:rgb(29,78,156);stroke-width:2.61px;"/>
        </g>
        <g transform="matrix(4.16667,0,0,4.16667,51.8667,5.43333)">
            <path d="M0,18.849L0,5.635C0,2.523 -2.523,0 -5.635,0L-11.144,0" style="fill:none;fill-rule:nonzero;stroke:rgb(29,78,156);stroke-width:2.61px;"/>
        </g>
        <g transform="matrix(4.16667,0,0,4.16667,51.8667,45.8083)">
            <path d="M0,0L25.763,0" style="fill:none;fill-rule:nonzero;stroke:rgb(29,78,156);stroke-width:2.61px;"/>
        </g>
    </g>
</svg>
