<?xml version="1.0" encoding="UTF-8" standalone="no"?>
<!DOCTYPE svg PUBLIC "-//W3C//DTD SVG 1.1//EN" "http://www.w3.org/Graphics/SVG/1.1/DTD/svg11.dtd">
<svg width="100%" height="100%" viewBox="0 0 142 156" version="1.1" xmlns="http://www.w3.org/2000/svg" xmlns:xlink="http://www.w3.org/1999/xlink" xml:space="preserve" xmlns:serif="http://www.serif.com/" style="fill-rule:evenodd;clip-rule:evenodd;stroke-linecap:round;stroke-linejoin:round;stroke-miterlimit:10;">
    <g transform="matrix(0.75,0,0,0.75,0,0)">
        <g transform="matrix(-4.16667,0,0,4.16667,2119.06,-1263.58)">
            <rect x="464.445" y="318.248" width="42.825" height="10.841" style="fill:none;stroke:rgb(29,78,156);stroke-width:2.61px;"/>
        </g>
        <g transform="matrix(-4.16667,0,0,4.16667,2119.05,-1123.6)">
            <rect x="467.127" y="295.494" width="37.459" height="22.754" style="fill:none;stroke:rgb(29,78,156);stroke-width:2.61px;"/>
        </g>
        <g transform="matrix(0,4.16667,4.16667,0,164.64,132.443)">
            <path d="M-16.798,-16.798L16.798,-16.798" style="fill:none;fill-rule:nonzero;stroke:rgb(29,78,156);stroke-width:2.61px;"/>
        </g>
        <g transform="matrix(4.16667,0,0,4.16667,72.8379,62.4554)">
            <path d="M0,-10.519C-2.905,-10.519 -5.259,-8.164 -5.259,-5.26C-5.259,-2.355 -2.905,0 0,0L5.259,0L5.259,-5.26C5.259,-8.164 2.905,-10.519 0,-10.519Z" style="fill:none;fill-rule:nonzero;stroke:rgb(29,78,156);stroke-width:2.61px;"/>
        </g>
        <g transform="matrix(4.16667,0,0,4.16667,123.262,62.4542)">
            <path d="M0,-13.685C-3.779,-13.685 -6.842,-10.622 -6.842,-6.843L-6.842,0L0,0C3.779,0 6.842,-3.064 6.842,-6.843C6.842,-10.622 3.779,-13.685 0,-13.685Z" style="fill:none;fill-rule:nonzero;stroke:rgb(29,78,156);stroke-width:2.61px;"/>
        </g>
    </g>
</svg>
