<?xml version="1.0" encoding="UTF-8" standalone="no"?>
<!DOCTYPE svg PUBLIC "-//W3C//DTD SVG 1.1//EN" "http://www.w3.org/Graphics/SVG/1.1/DTD/svg11.dtd">
<svg width="100%" height="100%" viewBox="0 0 224 199" version="1.1" xmlns="http://www.w3.org/2000/svg" xmlns:xlink="http://www.w3.org/1999/xlink" xml:space="preserve" xmlns:serif="http://www.serif.com/" style="fill-rule:evenodd;clip-rule:evenodd;stroke-miterlimit:10;">
    <g transform="matrix(0.75,0,0,0.75,0,0)">
        <g>
            <g transform="matrix(0,-4.16667,-4.16667,0,176.183,74.0354)">
                <path d="M-3.191,-4.069C-5.196,-4.069 -7.699,-2.444 -7.699,-0.439C-7.699,1.565 -5.196,3.191 -3.191,3.191C-1.186,3.191 0.439,1.565 0.439,-0.439C0.439,-2.444 -1.186,-4.069 -3.191,-4.069Z" style="fill:none;fill-rule:nonzero;stroke:rgb(29,78,156);stroke-width:2.61px;"/>
            </g>
            <g transform="matrix(4.16667,0,0,4.16667,148.253,111.727)">
                <path d="M0,10.577L0,4.086C0,1.829 1.829,0 4.086,0L9.028,0C11.285,0 13.114,1.829 13.114,4.086L13.114,10.577" style="fill:none;fill-rule:nonzero;stroke:rgb(29,78,156);stroke-width:2.61px;"/>
            </g>
            <g transform="matrix(4.16667,0,0,4.16667,134.561,5.43333)">
                <path d="M0,32.067L-21.363,32.067L-21.363,0L26.069,0L26.069,32.067L19.803,32.067" style="fill:none;fill-rule:nonzero;stroke:rgb(29,78,156);stroke-width:2.61px;stroke-linejoin:round;"/>
            </g>
            <g transform="matrix(4.16667,0,0,4.16667,54.6043,189.422)">
                <path d="M0,4.801C0,2.15 2.149,0 4.801,0C7.452,0 9.601,2.15 9.601,4.801" style="fill:none;fill-rule:nonzero;stroke:rgb(29,78,156);stroke-width:2.61px;"/>
            </g>
            <g transform="matrix(4.16667,0,0,4.16667,79.5331,169.42)">
                <path d="M0,4.801C0,2.15 2.149,0 4.801,0C7.452,0 9.601,2.15 9.601,4.801" style="fill:none;fill-rule:nonzero;stroke:rgb(29,78,156);stroke-width:2.61px;"/>
            </g>
            <g transform="matrix(4.16667,0,0,4.16667,104.321,189.422)">
                <path d="M0,4.801C0,2.15 2.149,0 4.801,0C7.452,0 9.601,2.15 9.601,4.801" style="fill:none;fill-rule:nonzero;stroke:rgb(29,78,156);stroke-width:2.61px;"/>
            </g>
            <g transform="matrix(4.16667,0,0,4.16667,153.432,189.422)">
                <path d="M0,4.801C0,2.15 2.149,0 4.801,0C7.452,0 9.601,2.15 9.601,4.801" style="fill:none;fill-rule:nonzero;stroke:rgb(29,78,156);stroke-width:2.61px;"/>
            </g>
            <g transform="matrix(4.16667,0,0,4.16667,178.361,169.42)">
                <path d="M0,4.801C0,2.15 2.149,0 4.801,0C7.452,0 9.601,2.15 9.601,4.801" style="fill:none;fill-rule:nonzero;stroke:rgb(29,78,156);stroke-width:2.61px;"/>
            </g>
            <g transform="matrix(4.16667,0,0,4.16667,129.179,169.42)">
                <path d="M0,4.801C0,2.15 2.149,0 4.801,0C7.452,0 9.601,2.15 9.601,4.801" style="fill:none;fill-rule:nonzero;stroke:rgb(29,78,156);stroke-width:2.61px;"/>
            </g>
            <g transform="matrix(4.16667,0,0,4.16667,203.148,189.422)">
                <path d="M0,4.801C0,2.15 2.149,0 4.801,0C7.452,0 9.601,2.15 9.601,4.801" style="fill:none;fill-rule:nonzero;stroke:rgb(29,78,156);stroke-width:2.61px;"/>
            </g>
            <g transform="matrix(4.16667,0,0,4.16667,69.0993,56.3733)">
                <path d="M0,0L14.419,0" style="fill:none;fill-rule:nonzero;stroke:rgb(29,78,156);stroke-width:2.61px;stroke-linejoin:round;"/>
            </g>
            <g transform="matrix(4.16667,0,0,4.16667,69.0993,75.3463)">
                <path d="M0,0L14.419,0" style="fill:none;fill-rule:nonzero;stroke:rgb(29,78,156);stroke-width:2.61px;stroke-linejoin:round;"/>
            </g>
            <g transform="matrix(4.16667,0,0,4.16667,69.0993,94.3192)">
                <path d="M0,0L14.419,0" style="fill:none;fill-rule:nonzero;stroke:rgb(29,78,156);stroke-width:2.61px;stroke-linejoin:round;"/>
            </g>
        </g>
    </g>
</svg>
