<?xml version="1.0" encoding="UTF-8" standalone="no"?>
<!DOCTYPE svg PUBLIC "-//W3C//DTD SVG 1.1//EN" "http://www.w3.org/Graphics/SVG/1.1/DTD/svg11.dtd">
<svg width="100%" height="100%" viewBox="0 0 157 157" version="1.1" xmlns="http://www.w3.org/2000/svg" xmlns:xlink="http://www.w3.org/1999/xlink" xml:space="preserve" xmlns:serif="http://www.serif.com/" style="fill-rule:evenodd;clip-rule:evenodd;stroke-linecap:round;stroke-linejoin:round;stroke-miterlimit:10;">
    <g transform="matrix(0.75,0,0,0.75,1.86517e-14,-4.52971e-14)">
        <g transform="matrix(4.16667,0,0,4.16667,-587.31,-3195.12)">
            <g transform="matrix(1,0,0,1,189.854,814.217)">
                <path d="M0,-4.917L0,-0C0,0.842 -0.683,1.526 -1.526,1.526L-12.716,1.526C-13.559,1.526 -14.242,0.842 -14.242,-0L-14.242,-4.917C-14.242,-5.76 -13.559,-6.443 -12.716,-6.443L-1.526,-6.443C-0.683,-6.443 0,-5.76 0,-4.917Z" style="fill:none;fill-rule:nonzero;stroke:rgb(29,78,156);stroke-width:2.61px;"/>
            </g>
            <g transform="matrix(1,0,0,1,188.196,780.885)">
                <path d="M0,26.935L-10.893,26.934C-11.841,26.685 -14.194,25.569 -16.322,23.13C-18.981,20.078 -18.865,15.241 -18.863,15.192L-18.77,15.196C-18.77,15.243 -18.886,20.044 -16.25,23.068C-14.144,25.484 -11.817,26.591 -10.875,26.841L-0.094,26.841C-0.094,26.12 -0.093,17.285 -0.093,13.241C-0.093,6.923 -2.013,3.847 -5.794,0.066L-5.728,0C-2.013,3.715 0.001,6.925 0.001,13.241C0.001,17.459 0,26.888 0,26.888L0,26.935Z" style="fill:none;fill-rule:nonzero;stroke:rgb(29,78,156);stroke-width:2.61px;"/>
            </g>
            <g transform="matrix(1,0,0,1,180.13,785.888)">
                <path d="M0,13.171C-0.052,13.098 -5.254,5.804 -6.409,4.039C-6.808,3.428 -7.665,2.265 -8.911,1.353C-10.113,0.472 -11.311,0.09 -12.468,0.226C-13.231,0.314 -13.978,0.943 -14.419,1.868C-14.883,2.844 -14.872,3.878 -14.391,4.633C-13.336,6.287 -10.737,10.126 -10.711,10.165L-10.788,10.218C-10.815,10.179 -13.414,6.339 -14.47,4.684C-14.969,3.901 -14.982,2.833 -14.503,1.828C-14.049,0.873 -13.274,0.224 -12.479,0.133C-11.293,0 -10.077,0.383 -8.855,1.278C-7.598,2.198 -6.733,3.371 -6.33,3.988C-5.176,5.751 0.025,13.043 0.077,13.116L0,13.171Z" style="fill:none;fill-rule:nonzero;stroke:rgb(29,78,156);stroke-width:2.61px;"/>
            </g>
            <g transform="matrix(1,0,0,1,179.283,768.132)">
                <clipPath id="_clip1">
                    <path d="M-33.874,0C-35.607,0 -37.025,1.419 -37.025,3.152L-37.025,23.64C-37.025,25.373 -35.607,26.792 -33.874,26.792L-10.682,26.792C-11.54,25.517 -12.887,23.505 -13.583,22.415C-14.651,20.741 -13.267,18.124 -11.627,17.936C-9.023,17.638 -6.689,19.985 -5.522,21.77C-4.958,22.632 -3.445,24.789 -2.03,26.792L0.001,26.792C1.734,26.792 3.152,25.373 3.152,23.64L3.152,3.152C3.152,1.419 1.734,0 0.001,0L-33.874,0Z" clip-rule="nonzero"/>
                </clipPath>
                <g clip-path="url(#_clip1)">
                    <path d="M0,26.792L-33.874,26.792C-35.607,26.792 -37.025,25.374 -37.025,23.64L-37.025,3.152C-37.025,1.419 -35.607,0 -33.874,0L0,0C1.734,0 3.152,1.419 3.152,3.152L3.152,23.64C3.152,25.374 1.734,26.792 0,26.792Z" style="fill:none;fill-rule:nonzero;stroke:rgb(38,38,39);stroke-width:2.61px;"/>
                </g>
            </g>
            <g transform="matrix(1,0,0,1,179.283,794.924)">
                <path d="M0,-26.792L-33.874,-26.792C-35.607,-26.792 -37.025,-25.374 -37.025,-23.64L-37.025,-3.152C-37.025,-1.419 -35.607,0 -33.874,0L-10.683,0C-11.54,-1.275 -12.888,-3.287 -13.583,-4.378C-14.651,-6.051 -13.268,-8.668 -11.627,-8.856C-9.023,-9.155 -6.69,-6.807 -5.523,-5.023C-4.959,-4.161 -3.445,-2.003 -2.03,0L0,0C1.734,0 3.152,-1.419 3.152,-3.152L3.152,-23.64C3.152,-25.374 1.734,-26.792 0,-26.792Z" style="fill:none;fill-rule:nonzero;stroke:rgb(29,78,156);stroke-width:2.61px;"/>
            </g>
            <g transform="matrix(1,0,0,1,148.181,781.528)">
                <path d="M0,0L28.068,0" style="fill:none;fill-rule:nonzero;stroke:rgb(29,78,156);stroke-width:2.66px;"/>
            </g>
            <g transform="matrix(0,-1,-1,0,150.724,772.27)">
                <circle cx="-2.543" cy="0" r="2.543" style="fill:none;stroke:rgb(29,78,156);stroke-width:2.66px;"/>
            </g>
            <g transform="matrix(0,-1,-1,0,162.215,772.27)">
                <circle cx="-2.543" cy="0" r="2.543" style="fill:none;stroke:rgb(29,78,156);stroke-width:2.66px;"/>
            </g>
            <g transform="matrix(0,-1,-1,0,173.706,772.27)">
                <circle cx="-2.543" cy="0" r="2.543" style="fill:none;stroke:rgb(29,78,156);stroke-width:2.66px;"/>
            </g>
            <g transform="matrix(0,-1,-1,0,150.724,785.699)">
                <circle cx="-2.543" cy="0" r="2.543" style="fill:none;stroke:rgb(29,78,156);stroke-width:2.66px;"/>
            </g>
            <g transform="matrix(0,-1,-1,0,162.215,785.699)">
                <circle cx="-2.543" cy="0" r="2.543" style="fill:none;stroke:rgb(29,78,156);stroke-width:2.66px;"/>
            </g>
            <g transform="matrix(1,0,0,1,171.525,789.072)">
                <path d="M0,-2.136C0.444,-2.877 1.255,-3.372 2.182,-3.372C3.586,-3.372 4.725,-2.234 4.725,-0.83C4.725,0.021 4.307,0.775 3.665,1.236" style="fill:none;fill-rule:nonzero;stroke:rgb(29,78,156);stroke-width:2.66px;"/>
            </g>
        </g>
    </g>
</svg>
