<svg aria-hidden="true" style="position: absolute; width: 0; height: 0; overflow: hidden;" version="1.1" xmlns="http://www.w3.org/2000/svg" xmlns:xlink="http://www.w3.org/1999/xlink">
<defs>
<symbol id="icon-message" viewBox="0 0 32 32">
<path d="M24 10.688v-2.688h-16v2.688h16zM24 14.688v-2.688h-16v2.688h16zM24 18.688v-2.688h-16v2.688h16zM26.688 2.688q1.063 0 1.844 0.781t0.781 1.844v16q0 1.063-0.781 1.875t-1.844 0.813h-18.688l-5.313 5.313v-24q0-1.063 0.781-1.844t1.844-0.781h21.375z"></path>
</symbol>
<symbol id="icon-phone" viewBox="0 0 32 32">
<path d="M8.813 14.375q3 5.813 8.813 8.813l2.938-2.938q0.625-0.625 1.375-0.313 2.25 0.75 4.75 0.75 0.563 0 0.938 0.375t0.375 0.938v4.688q0 0.563-0.375 0.938t-0.938 0.375q-9.375 0-16.031-6.656t-6.656-16.031q0-0.563 0.375-0.938t0.938-0.375h4.688q0.563 0 0.938 0.375t0.375 0.938q0 2.5 0.75 4.75 0.25 0.813-0.313 1.375z"></path>
</symbol>
<symbol id="icon-alternate_email" viewBox="0 0 32 32">
<path d="M16 20q1.625 0 2.813-1.188t1.188-2.813-1.188-2.813-2.813-1.188-2.813 1.188-1.188 2.813 1.188 2.813 2.813 1.188zM16 2.688q5.5 0 9.406 3.906t3.906 9.406v1.938q0 2-1.344 3.375t-3.281 1.375q-2.438 0-3.938-2-2 2-4.75 2t-4.719-1.969-1.969-4.719 1.969-4.719 4.719-1.969 4.719 1.969 1.969 4.719v1.938q0 0.813 0.594 1.438t1.406 0.625 1.406-0.625 0.594-1.438v-1.938q0-4.375-3.156-7.531t-7.531-3.156-7.531 3.156-3.156 7.531 3.156 7.531 7.531 3.156h6.688v2.625h-6.688q-5.5 0-9.406-3.906t-3.906-9.406 3.906-9.406 9.406-3.906z"></path>
</symbol>
<symbol id="icon-drafts" viewBox="0 0 32 32">
<path d="M16 17.313l11-6.875-11-6.438-11 6.438zM29.313 10.688v13.313q0 1.063-0.781 1.875t-1.844 0.813h-21.375q-1.063 0-1.844-0.813t-0.781-1.875v-13.313q0-1.563 1.25-2.313l12.063-7.063 12.063 7.063q1.25 0.75 1.25 2.313z"></path>
</symbol>
<symbol id="icon-access_time" viewBox="0 0 32 32">
<path d="M16.688 9.313v7l6 3.563-1 1.688-7-4.25v-8h2zM16 26.688q4.375 0 7.531-3.156t3.156-7.531-3.156-7.531-7.531-3.156-7.531 3.156-3.156 7.531 3.156 7.531 7.531 3.156zM16 2.688q5.5 0 9.406 3.906t3.906 9.406-3.906 9.406-9.406 3.906-9.406-3.906-3.906-9.406 3.906-9.406 9.406-3.906z"></path>
</symbol>
<symbol id="icon-desktop_mac" viewBox="0 0 32 32">
<path d="M28 18.688v-13.375h-24v13.375h24zM28 2.688q1.063 0 1.875 0.781t0.813 1.844v16q0 1.063-0.813 1.875t-1.875 0.813h-9.313l2.625 4v1.313h-10.625v-1.313l2.625-4h-9.313q-1.063 0-1.875-0.813t-0.813-1.875v-16q0-1.063 0.813-1.844t1.875-0.781h24z"></path>
</symbol>
<symbol id="icon-phone_iphone" viewBox="0 0 32 32">
<path d="M21.313 24v-18.688h-12v18.688h12zM15.313 29.313q0.813 0 1.406-0.594t0.594-1.406-0.594-1.406-1.406-0.594-1.406 0.594-0.594 1.406 0.594 1.406 1.406 0.594zM20.688 1.313q1.375 0 2.344 1t0.969 2.375v22.625q0 1.375-0.969 2.375t-2.344 1h-10.688q-1.375 0-2.344-1t-0.969-2.375v-22.625q0-1.375 0.969-2.375t2.344-1h10.688z"></path>
</symbol>
<symbol id="icon-pin_drop" viewBox="0 0 32 32">
<path d="M6.688 26.688h18.625v2.625h-18.625v-2.625zM13.313 10.688q0 1.125 0.781 1.875t1.906 0.75 1.906-0.75 0.781-1.875q0-1.063-0.813-1.875t-1.875-0.813-1.875 0.813-0.813 1.875zM24 10.688q0 2.688-2 6.344t-4 5.969l-2 2.313q-0.875-0.938-2.219-2.563t-3.563-5.5-2.219-6.563q0-3.313 2.344-5.656t5.656-2.344 5.656 2.344 2.344 5.656z"></path>
</symbol>
<symbol id="icon-phone_enabled" viewBox="0 0 32 32">
<path d="M23.188 14.375l-2.938-2.938q-0.563-0.563-0.313-1.375 0.75-2.25 0.75-4.75 0-0.563 0.375-0.938t0.938-0.375h4.688q0.563 0 0.938 0.375t0.375 0.938q0 9.375-6.656 16.031t-16.031 6.656q-0.563 0-0.938-0.375t-0.375-0.938v-4.688q0-0.563 0.375-0.938t0.938-0.375q2.5 0 4.75-0.75 0.75-0.313 1.375 0.313l2.938 2.938q5.813-3 8.813-8.813z"></path>
</symbol>
<symbol id="icon-address" viewBox="0 0 32 32">
<path d="M31.678 8.264l-3.8-2.928c-0.216-0.149-0.518-0.282-0.834-0.379-0.317-0.098-0.645-0.157-0.907-0.157h-10.938l1.282 8h9.656c0.262 0 0.59-0.059 0.906-0.157s0.619-0.232 0.834-0.378l3.8-2.931c0.216-0.146 0.323-0.339 0.323-0.534s-0.107-0.389-0.322-0.536zM13.6 1.6h-1.6c-0.442 0-0.8 0.358-0.8 0.8v5.6h-5.338c-0.266 0-0.592 0.059-0.907 0.158-0.317 0.096-0.619 0.229-0.834 0.378l-3.8 2.928c-0.216 0.146-0.322 0.341-0.322 0.536 0 0.194 0.106 0.387 0.322 0.536l3.8 2.931c0.214 0.146 0.517 0.28 0.834 0.376 0.315 0.098 0.642 0.157 0.907 0.157h5.338v13.6c0 0.442 0.358 0.8 0.8 0.8h1.6c0.442 0 0.8-0.358 0.8-0.8v-27.2c0-0.442-0.358-0.8-0.8-0.8z"></path>
</symbol>
<symbol id="icon-whatsapp" viewBox="0 0 31 31">
<path d="M26.429 4.505c-2.9-2.906-6.757-4.505-10.868-4.505-8.464 0-15.355 6.89-15.355 15.361 0 2.706 0.708 5.352 2.053 7.677l-2.18 7.962 8.144-2.137c2.246 1.223 4.771 1.871 7.338 1.871h0.006c0 0 0 0 0 0 8.464 0 15.361-6.89 15.361-15.361 0-4.105-1.598-7.962-4.499-10.868zM15.567 28.142v0c-2.295 0-4.541-0.618-6.503-1.78l-0.466-0.279-4.832 1.265 1.29-4.711-0.303-0.484c-1.284-2.028-1.956-4.378-1.956-6.793 0-7.042 5.728-12.769 12.775-12.769 3.409 0 6.618 1.332 9.028 3.742 2.41 2.416 3.736 5.619 3.736 9.034-0.006 7.048-5.734 12.775-12.769 12.775zM22.566 18.576c-0.381-0.194-2.271-1.12-2.622-1.247s-0.605-0.194-0.866 0.194c-0.254 0.381-0.993 1.247-1.217 1.508-0.224 0.254-0.448 0.291-0.829 0.097s-1.623-0.599-3.088-1.907c-1.138-1.017-1.913-2.277-2.137-2.658s-0.024-0.593 0.17-0.781c0.176-0.17 0.381-0.448 0.575-0.672s0.254-0.381 0.381-0.642c0.127-0.254 0.067-0.478-0.030-0.672s-0.866-2.083-1.181-2.852c-0.309-0.751-0.63-0.648-0.866-0.66-0.224-0.012-0.478-0.012-0.733-0.012s-0.672 0.097-1.023 0.478c-0.351 0.381-1.344 1.314-1.344 3.203s1.374 3.712 1.568 3.972c0.194 0.254 2.706 4.135 6.557 5.794 0.914 0.394 1.629 0.63 2.186 0.811 0.92 0.291 1.756 0.248 2.416 0.151 0.739-0.109 2.271-0.926 2.591-1.822s0.321-1.665 0.224-1.822c-0.091-0.17-0.345-0.266-0.733-0.46z"></path>
</symbol>
</defs>
</svg>
