<?xml version="1.0" encoding="UTF-8" standalone="no"?><!DOCTYPE svg PUBLIC "-//W3C//DTD SVG 1.1//EN" "http://www.w3.org/Graphics/SVG/1.1/DTD/svg11.dtd"><svg width="100%" height="100%" viewBox="0 0 624 596" version="1.1" xmlns="http://www.w3.org/2000/svg" xmlns:xlink="http://www.w3.org/1999/xlink" xml:space="preserve" xmlns:serif="http://www.serif.com/" style="fill-rule:evenodd;clip-rule:evenodd;stroke-linejoin:round;stroke-miterlimit:2;"><path d="M274.241,266.491c2.885,-5.197 9.791,-3.331 14.052,-2.223c2.471,0.647 4.781,1.811 7.061,3.048c-1.348,5.355 -2.223,10.708 1.728,13.381c6.856,4.639 16.32,2.928 17.134,-0.914c0.297,-1.4 0.466,-4.606 0.499,-8.609c0.128,0.025 0.257,0.05 0.38,0.074c2.809,0.536 5.416,1.798 8.089,2.86c2.399,0.956 4.025,-6.321 1.604,-7.21c-3.177,-1.152 -6.262,-2.665 -9.703,-2.644c-0.137,0.001 -0.283,0.005 -0.433,0.011c-0.058,-2.344 -0.153,-4.758 -0.286,-7.108c0.671,-0.147 1.339,-0.284 2.004,-0.395c2.528,-0.417 5.066,-0.511 7.605,-0.185c2.65,0.344 4.341,1.984 7.108,1.75c2.298,-0.197 3.642,-2.563 2.927,-4.676c-2.223,-6.568 -11.961,-6.429 -20.242,-4.005c-0.053,-0.485 -0.107,-0.963 -0.164,-1.422c-0.289,-2.324 -0.46,-5.466 -0.546,-9.012c0.556,-0.103 1.1,-0.191 1.627,-0.245c4.425,-0.461 9.033,-1.221 13.181,0.878c4.187,2.122 7.37,-4.673 3.088,-6.586c-4.928,-2.208 -10.426,-1.957 -15.628,-0.992c-0.675,0.125 -1.479,0.314 -2.335,0.565c0.003,-3.061 0.049,-6.228 0.123,-9.304c0.191,-0.046 0.384,-0.086 0.575,-0.133c5.532,-1.343 9.818,-0.62 15.274,0.211c3.251,0.493 5.875,-4.013 2.859,-6.141c-5.102,-3.594 -12.127,-3.356 -18.479,-1.096c0.168,-4.223 0.372,-7.859 0.564,-10.222c0.957,-0.194 1.907,-0.427 2.838,-0.647c3.983,-0.942 7.075,0.237 10.846,1.52c2.637,0.901 4.044,-3.309 2.116,-5.046c-4.044,-3.644 -10.194,-3.827 -15.37,-1.8c0.158,-3.442 0.244,-7.786 0.218,-12.232c2.3,-0.208 4.595,-0.385 6.858,-0.566c2.566,-0.198 13.009,-1.061 9.656,-6.426c-3.156,-5.045 -11.773,-2.172 -16.517,-1.346c-0.063,0.01 -0.124,0.025 -0.187,0.036c-0.123,-2.889 -0.309,-5.595 -0.57,-7.862c-0.046,-0.402 -0.099,-0.966 -0.155,-1.654c0.395,-0.05 0.79,-0.102 1.189,-0.148c4.102,-0.474 9.468,1.761 12.801,-1.093c0.769,-0.649 1.268,-1.688 0.826,-2.699c-2.285,-5.21 -9.588,-4.099 -14.274,-3.346c-0.347,0.056 -0.689,0.123 -1.027,0.2c-0.137,-2.232 -0.285,-4.791 -0.442,-7.616c0.15,-0.066 0.299,-0.135 0.45,-0.199c3.547,-1.497 7.209,-1.65 10.777,-2.801c3.162,-1.011 3.476,-6.079 0.288,-7.298c-3.171,-1.214 -7.799,-0.453 -11.991,1.492c-0.13,-2.462 -0.263,-5.031 -0.399,-7.688c2.276,-0.837 4.577,-1.56 6.947,-1.774c1.939,-0.178 8.877,-0.147 5.934,-5.346c-2.468,-4.357 -8.006,-2.604 -11.129,-1.437c-0.729,0.274 -1.444,0.63 -2.132,1.058c-0.083,-1.644 -0.166,-3.307 -0.249,-4.985c0.567,-0.181 1.129,-0.359 1.677,-0.54c3.034,-1.009 6.349,-1.084 8.762,-3.578c1.774,-1.842 2.264,-5.856 -0.64,-7.062c-2.904,-1.207 -6.886,-0.81 -10.311,0.78c-0.279,-5.72 -0.556,-11.454 -0.822,-16.977c2.624,-0.914 6.009,-1.928 8.056,-3.81c2.035,-1.877 2.167,-6.554 -1.516,-6.758c-2.384,-0.134 -4.782,0.535 -6.969,1.635c-0.112,-2.319 -0.22,-4.572 -0.324,-6.738c2.07,-0.768 4.309,-1.124 6.388,-1.857c3.797,-1.31 2.898,-6.714 -0.687,-7.556c-2.094,-0.489 -4.189,-0.196 -6.128,0.59c-0.386,-7.946 -0.681,-13.833 -0.824,-16.137c-0.688,-11.018 -0.98,-12.016 -1.798,-13.491c-0.819,-1.474 -5.51,-4.241 -7.665,3.859c-0.91,3.423 -0.562,12.036 -0.058,21.79c-0.836,-0.046 -1.635,0.025 -2.343,0.234c-1.445,0.415 -2.328,1.981 -2.222,3.34c0.175,1.848 1.135,2.927 2.318,4.268c0.768,0.862 1.717,1.614 2.763,2.195c0.094,1.95 0.179,3.888 0.249,5.793c-2.641,-0.481 -5.946,-0.441 -7.56,2.214c-0.797,1.309 -0.581,2.801 0.364,3.959c1.47,1.844 3.895,2.221 5.736,3.333c0.568,0.341 1.103,0.71 1.625,1.079c-0.042,2.844 -0.181,5.396 -0.453,7.521c-3.653,-0.208 -7.181,-0.036 -9.128,0.611c-0.791,0.262 -0.25,1.575 0.432,1.925c2.124,1.099 4.551,1.49 6.782,2.336c0.38,0.144 0.752,0.308 1.12,0.48c-0.259,2.677 -0.438,6.36 -0.556,10.721c-1.418,-0.161 -2.854,-0.165 -4.241,-0.049c-2.048,0.175 -4.362,1.044 -5.81,2.537c-1.163,1.21 -1.337,2.309 -1.964,3.698c-0.613,1.354 1.003,2.846 2.247,1.924c0.058,0.002 0.115,0.003 0.185,0.005c0.517,-0.051 0.978,-0.243 1.502,-0.204c1.17,0.079 2.314,0.172 3.477,0.299c1.548,0.156 3.054,0.712 4.445,1.467c-0.039,4.821 -0.034,10.047 0.003,15.418c-0.994,-0.166 -2,-0.297 -3.024,-0.362c-3.883,-0.238 -9.662,0.888 -10.727,5.294c-0.15,0.644 0.265,1.224 0.795,1.531c2.364,1.361 5.706,1.48 8.36,1.925c1.602,0.266 3.173,0.78 4.694,1.434c0.052,4.133 0.119,8.252 0.192,12.244c-1.308,-0.19 -2.508,-0.299 -3.47,-0.346c-3.05,-0.144 -6.383,0.628 -8.899,2.395c-2.339,1.649 -2.534,3.171 -2.701,5.679c-0.045,0.748 0.617,1.57 1.445,1.205c-0.03,0.006 2.619,-0.542 3.548,-0.715c2.105,-0.388 4.068,-0.055 6.163,0.198c1.408,0.177 2.766,0.501 4.1,0.914c0.099,4.561 0.201,8.784 0.296,12.455c-0.085,0.112 -0.174,0.221 -0.258,0.335c-0.069,0.091 -0.1,0.187 -0.101,0.279c-7.534,-1.829 -16.234,-0.371 -19,6.022c-0.135,0.299 0.03,0.757 0.397,0.775c4.083,0.245 8.042,-0.397 12.14,0.233c2.411,0.365 4.747,1.255 6.941,2.293c0.054,0.025 0.102,0.056 0.155,0.082c0.072,2.474 0.117,3.888 0.117,3.888c-0.009,1.65 -0.071,4.236 -0.162,7.397c-8.517,-2.24 -17.999,-2.059 -21.036,5.506c-0.149,0.369 0.032,0.936 0.502,0.962c6.94,0.4 13.827,-0.08 20.279,1.854c-0.185,5.803 -0.395,12.29 -0.557,18.261c-1.351,-0.82 -2.752,-1.571 -4.202,-2.246c-5.351,-2.496 -14.277,-3.509 -17.971,2.854c-0.459,0.803 -0.033,1.622 0.775,1.753c6.374,1.071 11.337,0.854 17.046,4.608c1.453,0.959 2.823,2.027 4.129,3.171c-0.061,4.157 -0.052,7.401 0.075,8.985c0.024,0.31 0.027,0.636 0.019,0.969c-11.35,-4.951 -27.792,-6.349 -25.217,8.07c0.212,1.18 1.427,2.055 2.077,0.891" style="fill:#3fae2a;fill-rule:nonzero;"/><path d="M314.649,105.469c-1.511,1.363 -1.844,2.825 -1.857,4.792c-0.008,1.063 1.391,1.041 1.827,0.323c0.513,-0.852 1.875,-0.782 2.764,-0.909c0.551,-0.072 1.112,-0.039 1.666,-0.097c0.874,-0.095 1.591,-0.31 2.42,-0.543c1.08,-0.3 1.735,-1.565 1.641,-2.617c-0.111,-1.233 -0.983,-1.951 -2.093,-2.284c-2.115,-0.639 -4.657,-0.22 -6.368,1.335" style="fill:#3fae2a;fill-rule:nonzero;"/><path d="M313.48,64.574c-2.082,0.359 -3.711,2.8 -3.679,5.167c0.005,0.82 0.789,1.483 1.468,1.399c1.825,-0.22 4.183,-1.622 4.31,-3.968c0.064,-1.316 -0.76,-2.822 -2.099,-2.598" style="fill:#3fae2a;fill-rule:nonzero;"/><path d="M310.987,56.168c1.92,2.215 5.369,0.737 4.653,-2.258c0.206,0.849 -0.003,0.201 0.13,-0.146c0.29,-0.826 0.336,-1.594 0.283,-2.456c-0.105,-1.794 -2.271,-2.981 -3.775,-1.893c-2.037,1.485 -3.155,4.624 -1.291,6.753" style="fill:#3fae2a;fill-rule:nonzero;"/><path d="M309.279,33.559c-0.693,-1.612 -1.364,-2.755 -3.012,-3.551c-1.174,-0.58 -2.701,-0.449 -3.745,0.343c-1.489,1.074 -1.928,2.334 -2.326,4.015c-1.834,7.812 12.301,6.532 9.083,-0.807" style="fill:#3fae2a;fill-rule:nonzero;"/><path d="M408.164,401.377c5.347,10.025 7.783,21.817 11.338,32.538c7.2,21.681 23.329,36.851 37.348,54.251c14.455,17.944 29.477,35.442 38.879,56.724c4.17,9.434 11.335,22.225 12.552,34.02c-0.386,-0.446 -0.85,-0.862 -1.406,-1.235c-2.384,-1.6 -8.912,-9.05 -16.353,-17.668c0.909,-0.331 1.687,-1.061 2.182,-1.885c1.367,-2.329 0.585,-5.221 -1.006,-7.221c-1.951,-2.547 -4.463,-3.526 -7.602,-2.924c-0.971,0.196 -1.836,0.869 -2.467,1.735c-1.229,-1.415 -2.449,-2.813 -3.648,-4.176c1.834,-1.095 3.555,-2.51 4.463,-4.393c0.364,-0.455 0.642,-0.926 0.854,-1.502c0.734,-1.948 -0.139,-4.709 -2.559,-4.946c-0.708,-0.072 -1.323,-0.054 -1.941,0.032c-2.673,-0.204 -5.586,1.51 -7.457,3.414c-3.417,-3.698 -6.343,-6.643 -8.332,-8.189c-0.145,-0.112 -0.299,-0.239 -0.461,-0.38c5.617,0.131 12.114,-1.784 11.644,-6.981c-0.343,-3.655 -5.064,-3.838 -7.75,-3.418c-3.53,0.478 -7.477,0.975 -10.393,3.182c-1.147,-1.414 -2.382,-2.977 -3.688,-4.664c1.365,-0.512 2.687,-1.131 3.832,-1.537c3.125,-1.096 5.482,-2.74 7.792,-5.059c1.063,-1.086 0.346,-2.711 -0.756,-3.352c-3.088,-1.91 -7.003,-1.395 -10.189,0.005c-1.728,0.764 -4.116,1.66 -5.962,2.973c-0.906,-1.216 -1.829,-2.464 -2.77,-3.745c4.923,-1.644 9.86,-3.222 13.134,-7.169c0.728,-0.858 0.662,-2.315 -0.269,-2.997c-4.903,-3.786 -13.111,-2.626 -19.515,1c-1.325,-1.847 -2.662,-3.72 -4.002,-5.606c0.28,-0.142 0.55,-0.278 0.798,-0.402c4.324,-2.102 8.622,-3.702 12.05,-7.21c1.17,-1.168 0.117,-2.851 -1.179,-3.257c-5.468,-1.623 -10.773,1.413 -15.405,4.054c-0.188,0.107 -0.443,0.276 -0.736,0.489c-1.377,-1.956 -2.745,-3.907 -4.094,-5.838c0.538,-0.156 1.075,-0.308 1.614,-0.449c3.875,-1.04 7.659,-1.742 10.57,-4.655c0.504,-0.496 0.439,-1.627 -0.179,-2.017c-4.445,-2.879 -10.985,-1.831 -16.403,0.808c-1.153,-1.661 -2.283,-3.292 -3.381,-4.88c0.741,-0.414 1.481,-0.829 2.217,-1.254c3.189,-1.834 7.702,-3.139 8.703,-7.071c0.193,-0.772 -0.328,-1.921 -1.142,-2.196c-4.031,-1.289 -8.093,1.805 -11.537,3.708c-0.718,0.399 -1.398,0.831 -2.057,1.281c-1.284,-1.864 -2.502,-3.636 -3.641,-5.297c2.113,-1.884 4.011,-3.974 5.212,-6.469c0.666,-1.369 -0.216,-2.789 -1.716,-2.892c-2.944,-0.178 -5.819,0.693 -8.468,2.107c-1.097,-1.601 -2.016,-2.943 -2.721,-3.967c-0.226,-0.329 -0.473,-0.681 -0.723,-1.038c1.192,-0.557 2.367,-1.106 3.517,-1.522c3.464,-1.249 7.953,-1.633 10.831,-4.053c0.72,-0.591 0.97,-1.845 0.092,-2.466c-4.276,-3.035 -12.664,-0.941 -18.073,3.007c-2.405,-3.273 -5.253,-7.073 -8.283,-11.119c0.193,-0.438 0.409,-0.926 0.664,-1.505c0.013,-0.028 0.027,-0.057 0.04,-0.086c4.992,-2.02 10.567,-2.851 15.059,-5.694c1.034,-0.668 0.959,-2.598 -0.28,-3.025c-7.867,-2.659 -15.032,-1.04 -20.755,3.25c-3.143,-4.226 -6.302,-8.521 -9.214,-12.6c0.757,-0.286 1.498,-0.56 2.173,-0.912c7.569,-2.232 15.584,-1.679 23.118,-4.067c1.782,-0.569 2.031,-2.84 0.26,-3.621c-7.471,-3.299 -17.464,-2.443 -26.445,0.991c-1.168,0.171 -2.396,0.574 -3.632,1.129c-2.174,-3.194 -4.051,-6.105 -5.472,-8.564c6.316,-2.059 14.682,-2.566 19.898,-6.278c1.31,-0.94 1.234,-3.222 -0.363,-3.861c-6.272,-2.537 -14.588,1.92 -20.389,4.313c-0.478,0.199 -1.044,0.413 -1.671,0.644c-0.033,-0.1 -0.079,-0.214 -0.107,-0.308c-1.075,-3.652 -2.648,-8.323 -4.514,-12.839c7.079,-2.701 14.774,-3.621 21.105,-8.029c2.028,-1.414 1.121,-4.355 -1.096,-4.886c-7.917,-1.917 -16.605,-0.203 -24.558,3.613c-1.81,-3.009 -3.718,-5.318 -5.609,-6.251c-0.241,-0.119 -0.47,-0.247 -0.691,-0.379c0.27,-0.282 0.544,-0.555 0.824,-0.812c1.491,-1.363 3.199,-2.446 4.994,-3.343c1.683,-0.832 3.335,-0.795 4.313,-2.715c0.56,-1.096 0.778,-2.515 0.057,-3.625c-3.53,-5.412 -10.228,-0.262 -13.353,2.923c-0.982,1 -2.326,2.508 -3.48,4.214c-1.568,-0.1 -3.581,0.218 -6.365,1.233c-8.813,3.214 -14.298,8.226 -11.728,13.465c-0.537,0.198 -1.028,0.395 -1.451,0.575c-4.108,1.741 -11.353,6.089 -7.609,11.355c0.769,1.078 2.17,1.394 3.394,1.274c2.145,-0.207 2.716,-1.758 4.106,-3.02c1.491,-1.341 3.124,-2.535 4.939,-3.423c0.431,-0.21 0.885,-0.4 1.346,-0.583c1.238,1.417 2.658,2.987 4.216,4.664c-5.928,5.641 -10.662,12.174 -12.297,18.942c-0.134,0.581 0.518,1.092 1.052,0.88c5.871,-2.342 10.209,-7.278 14.871,-11.43c0.789,-0.7 1.592,-1.383 2.404,-2.056c7.572,7.795 16.35,16.326 22.26,21.67c0.057,0.051 0.119,0.114 0.176,0.166c-4.867,4.31 -11.65,11.624 -11.105,18.676c0.055,0.668 0.839,1.024 1.366,0.635c5.118,-3.763 8.886,-9.563 13.857,-13.652c0.255,-0.209 0.529,-0.401 0.791,-0.604c3.698,4.12 8.094,9.545 12.685,15.489c-2.592,5.055 -3.719,11.371 -1.936,16.435c0.422,1.169 1.825,1.016 2.524,0.295c2.314,-2.42 4.013,-5.414 5.702,-8.43c4.461,5.986 8.888,12.12 12.845,17.729c-3.592,3.927 -7.543,9.704 -5.663,15.009c0.264,0.752 1.037,1.07 1.74,0.688c3.521,-1.928 6.148,-5.392 9.058,-8.333c1.361,1.976 2.613,3.816 3.732,5.481c-0.645,0.852 -1.222,1.721 -1.714,2.54c-2.779,4.613 -3.955,9.997 -2.616,15.238c0.321,1.207 2.237,2.143 2.995,0.697c2.005,-3.829 3.64,-7.826 5.953,-11.49c0.004,-0.007 0.009,-0.014 0.013,-0.021c2.708,3.974 6.477,9.245 10.75,15.064c-3.087,4.06 -4.403,9.569 -1.85,13.974c0.422,0.723 1.45,0.752 1.795,-0.086c1.112,-2.759 2.84,-5.328 4.464,-7.929c1.597,2.143 3.231,4.321 4.884,6.507c-0.627,1.058 -1.1,2.159 -1.365,3.29c-0.701,2.997 3.114,5.348 5.505,3.494c0.217,-0.166 0.447,-0.311 0.67,-0.467c9.849,12.845 19.461,24.812 23.89,29.246c9.307,9.318 33.167,31.501 36.315,37.885c1.689,3.426 3.062,6.83 4.647,9.144c-2.295,-0.115 -4.555,-0.515 -6.778,-1.158c-2.057,-1.712 -4.132,-2.299 -5.714,-4.652c-1.205,-1.804 -3.095,-4.892 -3.203,-7.095c-0.061,-1.323 -2.102,-1.72 -2.595,-0.449c-0.852,2.173 -1.284,4.061 -1.19,5.944c-0.099,-0.068 -0.198,-0.136 -0.297,-0.205c-0.883,-1.29 -1.937,-2.512 -2.221,-3.243c-1.489,-3.823 0.318,-8.994 -2.797,-12.103c-0.614,-0.627 -1.845,-0.48 -2.351,0.203c-1.483,2.022 -1.694,5.143 -1.444,8.057c-2.065,-1.879 -4.067,-3.839 -6,-5.819c0.004,-0.015 0.008,-0.031 0.012,-0.046c0.776,-2.812 2.486,-6.439 4.817,-8.27c1.578,-1.254 0.51,-4.321 -1.64,-3.449c-2.843,1.147 -5.467,2.704 -7.39,5.133c-0.301,0.38 -0.591,0.808 -0.865,1.264c-1.818,-1.979 -3.559,-3.92 -5.22,-5.761c1.912,-2.162 4.021,-4.209 4.847,-7.047c0.627,-2.153 -1.594,-4.063 -3.572,-3.905c-2.934,0.215 -5.317,2.265 -7.124,4.645c-1.269,-1.322 -2.551,-2.63 -3.85,-3.923c0.145,-0.63 0.306,-1.255 0.507,-1.866c1.006,-3.064 1.777,-6.165 1.739,-9.417c-0.013,-1.699 -1.816,-2.337 -3.192,-2.015c-3.995,0.954 -6.04,3.044 -6.94,5.711c-0.6,-0.56 -1.206,-1.115 -1.809,-1.673c-0.024,-0.098 -0.052,-0.193 -0.073,-0.291c-0.442,-2.06 0.327,-9.605 3.04,-14.893c0.703,-1.369 -0.13,-2.983 -1.546,-2.533c-3.314,1.046 -6.068,1.434 -7.992,4.973c-0.886,1.629 -1.489,3.313 -1.863,5.043c-1.41,-1.278 -2.82,-2.556 -4.225,-3.836c-0.664,-0.605 -1.319,-1.219 -1.979,-1.828c1.236,-2.978 3.605,-5.97 4.574,-8.478c0.557,-1.455 -0.412,-3.066 -2.046,-2.931c-3.866,0.29 -6.652,2.756 -8.416,5.903c-1.7,-1.613 -3.395,-3.23 -5.082,-4.855c0.085,-2.624 0.678,-5.378 1.03,-7.034c0.89,-4.151 4.398,-7.433 4.905,-11.563c0.305,-2.497 -1.532,-4.677 -4.116,-4.506c-6.835,0.489 -9.256,9.372 -10.081,15.111c-3.839,-3.721 -7.688,-7.431 -11.579,-11.099c1.742,-4.753 5.658,-9.463 6.13,-13.793c0.113,-1.043 -0.638,-2.007 -1.743,-1.906c-5.104,0.463 -8.189,5.575 -9.838,10.138c-2.048,-2.335 -3.962,-4.817 -5.798,-7.382c0.274,-2.066 0.656,-4.114 1.186,-6.126c1.591,-6.095 5.299,-11.301 8.06,-16.854c0.672,-1.376 -0.459,-3.647 -2.221,-2.954c-8.042,3.152 -11.561,10.186 -12.396,17.996c-2.212,-3.403 -4.389,-6.833 -6.64,-10.158c0.811,-5.553 3.707,-10.382 4.909,-15.798c0.275,-1.253 -0.985,-1.917 -2.024,-1.679c-4.636,1.064 -7.092,5.272 -8.428,9.857c-1.76,-2.227 -3.566,-4.414 -5.403,-6.574c1.536,-5.187 5.499,-8.455 7.787,-13.283c0.416,-0.869 -0.135,-2.05 -1.128,-2.189c-5.978,-0.768 -9.53,4.608 -11.525,9.904c-5.02,-5.551 -10.295,-10.865 -15.817,-15.923c0.235,-0.469 -0.318,-0.955 1.335,-5.222c2.223,-5.733 6.415,-10.619 8.075,-16.541c0.455,-1.601 -1.009,-3.761 -2.852,-2.789c-7.114,3.722 -13.859,9.232 -15.674,15.573c-0.969,-0.95 -1.973,-1.874 -3.023,-2.766c-0.093,-0.079 -0.188,-0.168 -0.283,-0.25c-0.392,-0.652 -0.958,-1.208 -1.687,-1.562c-3.605,-3.495 -7.696,-8.169 -12.074,-9.814c-0.234,-0.124 -0.493,-0.219 -0.782,-0.27c-0.237,-0.068 -0.491,-0.098 -0.752,-0.108c-2.316,-0.265 -4.725,0.131 -7.128,0.957c-3.132,-6.018 -8.751,-11.35 -13.751,-14.507c-0.599,-0.375 -1.234,0.39 -1.031,0.956c1.624,4.566 4.863,8.493 7.45,12.563c0.741,1.164 1.332,2.354 1.826,3.564c-3.147,1.824 -6.141,4.102 -8.739,6.272c-2.456,-6.997 -7.121,-13.673 -11.324,-17.272c-1.628,-1.387 -3.98,0.402 -3.298,2.34c1.807,5.147 4.614,9.966 6.651,15.031c0.771,1.917 1.24,3.825 1.536,5.736c-1.935,1.944 -3.767,3.986 -5.531,6.089c-2.079,-4.725 -5.166,-8.908 -8.543,-11.143c-0.878,-0.588 -2.607,-0.141 -2.318,1.213c1,4.662 3.407,8.968 4.85,13.528c0.314,0.981 0.549,1.994 0.754,3.02c-1.238,1.628 -2.46,3.268 -3.679,4.905c-1.295,-2.581 -2.994,-4.775 -5.071,-6.141c-0.803,-0.534 -2.401,-0.14 -2.125,1.105c0.546,2.441 2.192,4.435 3.013,6.783c0.317,0.903 0.582,1.822 0.82,2.749c-4.807,6.414 -9.615,12.831 -14.443,19.235c-1.052,-0.852 -2.069,-1.642 -2.894,-2.358c-3.605,-3.119 -7.815,-6.202 -12.759,-6.354c-1.539,-0.053 -1.766,1.982 -0.882,2.834c3.391,3.266 6.979,6.187 10.107,9.748c0.599,0.681 1.206,1.439 1.835,2.207c-2.29,3.021 -4.59,6.036 -6.897,9.045c-0.833,-0.783 -1.695,-1.533 -2.592,-2.22c-1.176,-0.899 -2.985,-1.71 -3.982,-2.743c-1.447,-1.489 -3.449,0.757 -2.51,2.324c0.535,0.889 0.728,2.014 1.338,2.954c1.131,1.747 2.392,3.344 3.69,4.964c-1.145,1.48 -2.3,2.952 -3.45,4.427c-2.998,-3.418 -8.028,-8.807 -10.184,-6.693c-2.603,2.54 3.855,9.098 6.25,11.717c-2.367,3.004 -4.751,5.992 -7.149,8.968c-3.002,-5.644 -7.142,-10.97 -10.556,-15.373c-1.025,-1.321 -3.298,-0.229 -2.637,1.406c2.045,5.009 4.301,9.92 6.689,14.788c0.737,1.501 1.422,3.045 2.129,4.58c-0.165,0.2 -0.326,0.404 -0.49,0.604c-1.338,1.635 -2.739,3.21 -4.178,4.749c-0.46,-0.39 -0.924,-0.775 -1.4,-1.14c-1.466,-1.121 -3.722,-2.132 -4.966,-3.421c-1.805,-1.857 -4.301,0.945 -3.13,2.899c0.667,1.108 0.907,2.511 1.669,3.684c0.769,1.188 1.587,2.319 2.434,3.431c-3.106,2.993 -6.307,5.896 -9.474,8.834c-0.301,-0.319 -0.586,-0.621 -0.844,-0.899c-4.385,-4.754 -11.208,-9.464 -17.908,-9.367c-1.712,0.044 -2.562,2.626 -1.12,3.598c5.549,3.757 9.795,7.055 13.907,12.358c-0.844,0.836 -1.683,1.679 -2.506,2.536c-1.466,1.526 -2.9,3.083 -4.321,4.652c-3.16,-4.28 -6.603,-8.091 -11.557,-10.219c-2.661,-1.153 -4.527,2.408 -2.548,4.017l-0.035,0.05c0.759,0.606 1.456,1.244 2.16,1.889c2.212,3.332 2.839,10.26 3.53,13.068c0.055,0.218 0.104,0.443 0.152,0.67c-2.174,2.534 -4.348,5.067 -6.546,7.574c-4.322,-2.657 -8.548,-5.44 -12.844,-8.123c-1.95,-1.214 -4.23,0.718 -3.027,2.578c3.882,6.066 6.384,9.249 10.321,11.684c-2.532,2.705 -5.13,5.342 -7.828,7.87c-3.626,-2.363 -6.543,-5.317 -9.933,-7.955c-0.93,-0.741 -2.629,-0.077 -2.403,1.261c0.752,4.332 4.747,7.788 7.824,10.634c0.018,0.016 0.032,0.029 0.05,0.044c-2.66,2.279 -5.406,4.461 -8.284,6.495c-8.361,5.913 -16.223,7.159 -25.49,8.378c1.116,-2.74 1.295,-6.569 3.82,-9.439c3.775,-4.29 18.626,-19.701 27.081,-31.015c1.686,-2.256 3.937,-5.179 6.521,-8.502c3.28,0.697 6.208,0.208 9.62,0.231c1.414,0.006 1.247,-1.959 0.103,-2.318c-2.001,-0.593 -3.875,-1.839 -5.773,-2.975c7.376,-9.432 16.295,-20.754 22.991,-29.643c0.565,0.666 1.16,1.318 1.798,1.952c2.605,2.578 6.517,6.258 10.337,6.619c1.165,0.085 2.328,-0.732 2.176,-1.99c-0.398,-3.524 -3.838,-6.652 -6.6,-8.568c-1.36,-0.946 -2.748,-1.883 -4.12,-2.844c1.012,-1.384 1.934,-2.667 2.738,-3.819c1.124,-1.612 2.717,-3.755 4.653,-6.294c0.754,1.028 1.564,2.024 2.452,2.981c2.688,2.916 6.128,6.838 10.289,7.084c0.875,0.042 1.987,-0.399 2.049,-1.441c0.372,-6.198 -5.927,-9.74 -11.075,-13.454c2.586,-3.336 5.518,-7.085 8.622,-11.06c2.294,2.666 5.306,5.531 8.423,6.548c1.202,0.382 1.872,-0.418 2.426,-1.697c1.534,-3.543 -2.044,-6.842 -4.4,-9.132c-0.593,-0.572 -1.21,-1.11 -1.834,-1.638c2.532,-3.254 5.117,-6.592 7.672,-9.926c3.331,3.628 6.942,7.33 11.437,8.817c2.227,0.723 4.057,-0.937 3.483,-3.222c-1.28,-5.155 -5.503,-9.199 -9.45,-12.797c3.137,-4.172 6.126,-8.232 8.797,-12.002c2.402,3.051 4.824,6.146 8.253,8.039c1.413,0.789 2.992,-0.576 2.902,-2.028c-0.294,-4.835 -3.48,-8.877 -6.795,-12.341c1.835,-2.76 3.386,-5.251 4.557,-7.369c3.316,6.493 6.728,13.233 11.282,18.922c1.376,1.721 3.795,0.658 3.823,-1.424c0.098,-8.107 -4.503,-15.519 -8.699,-22.159c-0.325,-0.509 -1.001,-1.775 -1.877,-3.232c1.616,-2.356 3.541,-4.853 5.672,-7.437c0.062,0.088 0.131,0.168 0.191,0.257c2.645,3.884 4.181,8.842 6.063,13.122c0.497,1.137 2.389,1.158 2.557,-0.227c0.657,-5.528 -0.844,-12.944 -4.491,-18.22c2.049,-2.34 4.185,-4.711 6.335,-7.076c2.049,2.932 3.413,6.308 5.845,8.941c1.13,1.227 2.889,1.204 3.743,-0.34c2.732,-4.929 -0.249,-10.796 -3.924,-14.818c2.71,-2.984 5.31,-5.889 7.636,-8.629c1.883,3.222 2.662,7.447 5.649,9.716c1.195,0.914 2.549,0.451 3.299,-0.732c3.005,-4.749 -0.961,-11.367 -3.976,-15.224c1.542,-2.115 2.756,-4.043 3.532,-5.729c0.775,0.875 1.509,1.775 2.198,2.681c1.689,2.221 3.129,4.736 4.28,7.282c0.968,2.142 1.707,4.619 3.682,6.049c1.063,0.77 2.538,0.761 3.413,-0.316c4.528,-5.501 -2.406,-14.503 -6.028,-18.573c-1.722,-1.928 -3.689,-3.771 -5.852,-5.301c-0.369,-5.08 -4.794,-5.658 -9.291,-8.121c-2.989,-1.637 -5.93,-0.553 -8.781,2.03c-0.891,-0.588 -1.766,-1.124 -2.561,-1.609c-4.458,-2.713 -12.264,-7.692 -17.464,-4.548c-0.614,0.365 -0.577,1.136 -0.284,1.673c2.298,4.25 9.483,5.783 13.574,7.956c0.8,0.425 1.61,0.948 2.433,1.513c-1.318,1.823 -2.611,3.845 -3.873,5.936c-0.747,1.239 -1.967,3.083 -3.527,5.373c-3.694,-2.738 -7.368,-5.647 -11.678,-7.327c-1.349,-0.526 -2.794,-0.302 -3.766,0.83c-0.639,0.756 -0.737,1.334 -0.713,2.305c0.029,1.08 0.84,2.142 1.803,2.57c3.975,1.779 7.32,4.32 10.942,6.575c-1.802,2.597 -3.827,5.493 -5.969,8.564c-0.33,-0.232 -0.657,-0.462 -0.973,-0.691c-3.363,-2.43 -9.341,-8.212 -13.714,-6.449c-0.778,0.311 -1.092,1.111 -0.856,1.881c0.684,2.253 2.171,2.809 4.188,3.918c2.907,1.619 5.618,3.579 8.331,5.492c0.029,0.021 0.06,0.043 0.089,0.063c-2.007,2.887 -4.072,5.871 -6.121,8.864c-0.168,-0.112 -0.331,-0.222 -0.475,-0.323c-3.685,-2.594 -8.936,-8.022 -13.853,-5.884c-0.719,0.306 -1.285,1.043 -1.169,1.862c0.329,2.385 1.758,4.14 3.776,5.415c2.556,1.627 5.018,3.407 7.561,5.059c-2.035,3.028 -3.999,5.999 -5.811,8.817c-1.085,-0.682 -2.136,-1.314 -3.032,-1.907c-3.15,-2.078 -7.961,-6.486 -11.907,-5.183c-0.67,0.223 -1.021,0.917 -0.991,1.581c0.195,4.208 6.591,6.773 9.814,8.452c0.956,0.503 2.033,1.111 3.175,1.721c-1.921,3.114 -3.561,5.933 -4.784,8.295c-1.38,-0.92 -2.811,-1.784 -4.295,-2.605c-3.519,-1.942 -8.558,-5.078 -12.397,-2.368c-0.709,0.505 -0.749,1.373 -0.346,2.073c2.093,3.608 7.886,4.695 11.42,6.488c1.013,0.513 2.017,1.003 3.026,1.451c-1.294,2.332 -3.032,5.273 -5.113,8.673c-1.122,-0.871 -2.24,-1.747 -3.364,-2.628c-3.352,-2.652 -6.713,-5.717 -11.211,-5.691c-0.774,0.017 -1.458,1.025 -1.087,1.739c1.929,3.745 5.136,6.816 8.47,9.441c0.992,1.237 2.055,2.443 3.161,3.621c-1.99,3.159 -4.167,6.564 -6.473,10.132c-3.49,-4.22 -7.606,-8.344 -13.562,-7.703c-1.461,0.157 -4.461,2.742 -3.079,3.529c5.556,3.166 8.9,6.957 12.262,10.904c-2.832,4.329 -5.794,8.811 -8.802,13.324c-2.987,-1.394 -6.033,-2.704 -9.244,-2.031c-2.507,0.533 -4.697,4.191 -1.88,6.029c2.146,1.4 4.514,2.027 6.957,2.232c-2.373,3.534 -4.748,7.051 -7.087,10.492c-0.579,-0.212 -1.151,-0.465 -1.728,-0.805c-1.751,-1.008 -3.752,-2.238 -5.835,-1.861c-2.033,0.353 -3.474,2.232 -2.711,4.322c0.904,2.462 3.38,3.809 6.128,4.422c-2.078,3.034 -4.101,5.971 -6.045,8.774c-0.236,-0.048 -0.48,-0.098 -0.744,-0.155c-2.479,-0.516 -4.637,-1.437 -7.16,-0.77c-1.306,0.349 -1.988,1.822 -1.612,3.046c0.715,2.422 2.861,3.433 5.016,4.331c-4.385,6.247 -8.126,11.447 -10.762,14.929c-1.638,-0.633 -3.314,-1.097 -5.105,-1.06c-2.905,0.056 -3.78,3.964 -1.768,5.681c0.645,0.547 1.365,0.996 2.133,1.378c-12.186,14.976 -28.303,32.256 -32.702,38.973c0,0 -1.901,2.202 -3.923,5.278c-0.841,-17.111 15.729,-34.304 25.655,-46.19c15.681,-18.783 27.874,-38.675 37.795,-61.119c11.575,-26.179 21.209,-54.102 39.323,-76.7c7.042,-8.776 14.661,-16.993 20.15,-26.895c1.977,-3.565 3.687,-7.95 4.535,-12.46c0.001,-0.001 0.001,-0.001 0.002,-0.002c5.199,-8.191 3.292,-14.27 -0.419,-18.777c2.454,-6.989 3.031,-15.099 1.553,-19.892c-0.537,-1.745 -5.12,-3.117 -6.271,-1.39c-2.951,4.41 -1.091,10.309 -2.112,15.219c-0.781,-0.561 -1.526,-1.078 -2.193,-1.549c-4.086,-2.893 -8.292,-4.922 -12.611,-6.66c-0.067,-1.908 -0.041,-3.766 0.201,-5.52c0.704,-3.031 1.115,-5.943 1.167,-8.469c0.336,-2.26 -3.058,-3.153 -3.947,-1.451c-2.092,3.99 -3.625,8.312 -5.467,12.451c-2.88,-1.03 -5.806,-2.082 -8.779,-3.312c-7.429,-3.073 -15.171,-5.847 -22.999,-8.587c-0.029,-0.801 -0.068,-1.599 -0.126,-2.387c-0.407,-5.605 0.089,-10.787 0.021,-16.377c-0.019,-1.532 -3.844,-2.324 -4.734,-1.409c-4.236,4.35 -4.831,10.913 -4.803,16.807c-3.154,-1.106 -6.307,-2.224 -9.444,-3.371c0.678,-6.388 2.36,-13.424 2.563,-18.736c0.09,-2.241 -6.427,-2.569 -7.974,3.008c-1.751,4.465 -2.817,8.524 -3.458,12.375c-0.792,-0.312 -1.582,-0.627 -2.371,-0.945c-0.783,-0.425 -1.579,-0.833 -2.383,-1.228c-0.079,-0.505 -0.146,-1.007 -0.183,-1.503c-0.484,-6.654 1.242,-13.181 1.162,-19.816c-0.023,-1.819 -2.323,-2.136 -3.381,-1.05c-4.717,4.845 -5.631,12.003 -5.698,18.647c-2.009,-0.917 -4.026,-1.796 -6.05,-2.654c-0.29,-1.225 -0.563,-2.455 -0.789,-3.693c-0.913,-5.051 -0.251,-10.579 -2.944,-15.264c-0.962,-1.675 -4.239,-1.353 -4.898,0.443c-1.287,3.517 -1.2,7.305 -0.731,11.018c-2.933,-1.384 -6.19,-2.321 -9.486,-3.079c-1.129,-0.601 -2.26,-1.179 -3.393,-1.743c-0.984,-3.892 -2.223,-5.989 -3.053,-13.387c-0.04,-0.353 -0.67,-2.317 -0.954,-2.525c-2.857,-2.094 -4.566,4.283 -3.727,12.323c-6.733,-2.916 -13.544,-5.378 -20.454,-7.759c-1.215,-4.2 -0.995,-8.151 -1.559,-12.696c-0.082,-0.697 -0.884,-1.102 -1.481,-0.678c-3.586,2.571 -4.498,6.628 -3.851,11.022c-2.119,-0.72 -4.246,-1.444 -6.384,-2.183c-1.444,-2.993 -2.144,-6.675 -0.386,-9.801c0.711,-1.274 -1.186,-1.631 -2.251,-0.569c-2.817,2.815 -3.932,5.47 -4.03,8.016c-0.99,-0.358 -1.983,-0.723 -2.977,-1.093c-0.269,-0.427 -0.533,-0.856 -0.784,-1.291c-2.528,-4.391 -1.867,-8.313 -2.495,-12.947c-0.075,-0.584 -0.964,-0.903 -1.646,-0.531c-4.573,2.515 -5.449,6.499 -4.33,10.65c-2.078,-1.171 -4.168,-2.508 -6.246,-3.937c-0.058,-2.578 2.924,-12.296 -2.505,-9.951c-2.376,1.024 -3.68,2.858 -4.323,4.945c-3.894,-2.999 -7.615,-6.047 -10.956,-8.625c-4.086,-3.152 -7.564,-6.945 -10.244,-11.35c-0.882,-1.446 -1.464,-2.999 -1.986,-4.567c4.531,3.626 9.797,6.514 15.374,8.328c3.831,2.52 8.002,4.508 12.369,5.702l1.061,0.261l18.318,8.812c1.976,1.414 17.143,6.845 26.263,9.757c-0.007,0.035 -0.014,0.07 -0.021,0.104c-0.769,3.63 -1.086,8.047 1.84,10.69c0.681,0.626 1.738,0.253 2.131,-0.499c1.352,-2.574 1.817,-5.591 2.494,-8.455c0.018,0.003 0.044,0.008 0.061,0.011l5.196,1.771c4.632,1.076 9.272,2.039 14.485,3.346c-1.135,4.884 -0.945,12.734 3.328,15.936c0.772,0.582 2.218,0.446 2.539,-0.611c1.26,-4.189 0.47,-8.776 1.628,-13.112c0.015,-0.054 0.026,-0.099 0.041,-0.152c3.415,1.118 17.315,5.88 29.571,10.068c0.043,0.341 0.108,0.405 0.192,0.065c9.568,3.269 18.089,6.173 19.758,6.691c2.394,0.742 8.356,2.535 14.477,4.63c0.155,6.777 2.052,15.32 7.93,16.563c0.061,0.013 0.063,-0.145 0.142,-0.121c3.537,1.085 2.058,-5.811 1.142,-13.028c0.902,0.372 1.762,0.741 2.557,1.104c1.245,0.569 2.99,1.367 5.066,2.321c-0.877,6.645 -0.815,15.049 3.644,19.093c1.371,1.245 3.343,1.015 4.084,-0.802c1.134,-2.776 0.633,-5.301 0.66,-8.296c0.019,-2.049 0.015,-4.07 0.093,-6.084c4.56,2.112 9.519,4.426 14.016,6.56c0.542,2.047 0.942,4.092 1.303,6.202c0.313,1.83 0.257,3.426 1.226,5.012c0.634,1.04 1.863,0.985 2.579,0.087c1.394,-1.746 2.503,-4.487 3.157,-7.318c2.589,1.277 4.591,2.308 5.617,2.919c2.447,1.458 8.061,4.077 13.644,6.365c0.425,1.742 0.758,3.489 1.065,5.283c0.313,1.83 0.257,3.426 1.226,5.013c0.633,1.039 1.863,0.984 2.579,0.086c1.401,-1.754 2.513,-4.512 3.166,-7.356c2.64,0.876 4.77,1.417 5.828,1.358c3.915,-0.219 8.011,-1.974 7.474,-10.996c-0.537,-9.022 -5.917,-11.352 -5.917,-11.352c0,0 -1.854,-0.771 -4.83,-1.999c3.968,-11.34 4.971,-24.412 -4.166,-28.934c-1.182,-0.59 -3.003,0.186 -3.114,1.607c-0.195,2.644 -0.039,3.69 0.793,6.271c1.666,5.123 1.22,10.076 0.47,15.318c-0.147,1.017 -0.336,2.03 -0.547,3.04c-3.478,-1.425 -7.446,-3.043 -11.46,-4.663c0.239,-1.611 0.453,-3.069 0.666,-4.17c1.64,-8.472 -0.425,-20.301 -11.575,-21.349c-0.846,-0.08 -1.441,0.43 -1.229,1.132c2.032,6.617 2.845,13.541 2.174,20.405c-3.913,-1.544 -7.463,-2.914 -10.146,-3.894c-0.333,-0.122 -0.704,-0.251 -1.098,-0.385c1.048,-7.431 -3.506,-19.407 -11.683,-22.277c-1.051,-0.372 -2.127,0.274 -2.072,1.448c0.15,3.295 1.349,5.222 2.609,8.281c1.206,2.932 1.517,6.297 1.427,9.643c-3.817,-1.061 -8.21,-2.227 -12.83,-3.423c1.714,-5.858 -1.762,-15.564 -6.517,-17.163c-0.706,-0.24 -1.573,-0.217 -2.063,0.456c-1.473,2.012 -1.159,3.549 -0.682,5.987c0.52,2.662 0.555,5.4 0.382,8.116c-0.328,-0.053 -0.668,-0.03 -0.992,0.087c-5.266,-1.324 -10.508,-2.618 -15.26,-3.779c0.139,-0.666 0.335,-1.402 0.654,-2.254c1.553,-4.132 3.211,-11.269 -3.2,-13.147c-1.048,-0.308 -2.226,0.046 -2.781,0.785c-1.601,2.147 -0.971,3.441 -0.579,5.763c0.4,2.337 -0.283,4.787 -1.121,7.146c-4.828,-1.167 -8.627,-2.073 -10.643,-2.551c0.588,-3.818 0.611,-7.762 0.136,-11.552c-0.528,-4.208 -7.191,-3.576 -6.546,0.598c0.484,3.13 0.483,6.159 0.183,9.209c-1.363,-0.261 -2.74,-0.4 -4.118,-0.386c-2.66,-0.94 -5.205,-1.865 -7.723,-2.77c0.285,-1.007 0.522,-2.025 0.718,-3.034c0.443,-2.269 1.524,-9.682 -2.199,-10.105c-3.27,-0.372 -2.675,3.934 -2.572,5.995c0.096,1.87 -0.111,3.719 -0.401,5.561c-3.526,-1.233 -7.095,-2.418 -10.928,-3.54c0.044,-0.203 0.056,-0.381 0.036,-0.534c1.331,-3.554 2.406,-7.974 0.262,-11.074c-1.51,-2.171 -7.179,-1.912 -8.066,0.731c-0.811,2.43 -0.999,4.999 -1.152,7.542c-0.383,-0.196 -0.828,-0.413 -1.375,-0.663c-0.132,-0.487 -5.968,-2.463 -7.501,-2.825c-3.384,-0.797 -6.423,-1.457 -9.981,-2.283c0.615,-2.549 0.497,-5.125 -0.983,-7.571c-0.981,-1.635 -3.459,-1.396 -5.251,-0.756c-2.613,0.934 -3.512,3.155 -3.618,5.899c-1.513,-0.395 -3.126,-0.823 -4.893,-1.304c-0.089,0.002 -0.178,0.004 -0.267,0.005c-0.031,-0.241 -0.063,-0.482 -0.104,-0.72c-0.479,-2.857 -1.328,-6.039 -3.377,-8.344c-2.734,-3.076 -7.581,-0.664 -7.949,2.72c-0.128,1.169 -0.025,2.244 0.254,3.255c-5.825,-1.583 -12.346,-3.36 -15.096,-4.494l-13.134,-7.145c-0.6,-0.268 -1.203,-0.52 -1.816,-0.745c-0.06,-0.032 -0.105,-0.072 -0.168,-0.104c-3.896,-1.844 -8.066,-5.104 -12.436,-7.826c13.362,0.124 26.225,2.547 39.743,5.819c11.466,2.778 22.881,5.784 34.288,8.821c-0.846,3.237 -0.237,6.92 2.181,9.189c1.015,0.949 2.125,1.56 3.564,1.292c1.526,-0.284 3.102,-1.74 3.062,-3.398c-0.035,-1.651 -0.287,-3.286 -0.639,-4.907c6.015,1.603 12.03,3.203 18.052,4.77c22.168,5.771 44.526,10.62 67.352,12.873c11.657,1.147 23.199,2.283 34.796,3.98c6.213,0.91 12.432,1.714 18.685,2.245c4.961,0.414 10.243,1.197 14.817,-1.025c1.128,-0.548 1.816,-1.726 1.842,-2.871c15.152,-6.229 15.851,-34.076 16.439,-47.062c0.559,-12.37 2.378,-24.859 2.981,-37.3c0.685,-14.147 2.668,-28.409 4.746,-42.373c3.586,-24.077 6.899,-48.11 11.114,-72.085c1.815,-10.338 3.659,-20.853 4.118,-31.324c0.16,-3.63 0.68,-7.247 2.329,-10.452c-0.676,4.203 -0.579,8.854 0.085,12.189c0.852,4.276 6.508,3.918 7.058,0.906c0.263,-1.436 0.93,-6.318 1.557,-11.036c0.592,1.968 1.191,3.935 1.719,5.926c11.427,43.244 16.06,87.911 25.207,131.658c3.129,14.96 3.618,29.376 4.803,44.498c0.55,6.972 1.639,13.915 1.743,20.886c0.098,6.68 -0.474,13.289 0.077,19.959c1.551,18.756 17.136,31.478 35.591,26.794c0.682,-0.173 1.292,-0.686 1.815,-1.404c22.582,-4.763 44.584,-11.243 67.623,-14.116c11.106,-1.385 22.373,-1.325 33.53,-2.38c0.115,1.045 0.233,2.091 0.299,3.149c0.229,3.665 -0.913,7.289 -0.496,10.954c0.205,1.796 2.544,2.62 3.726,1.158c2.922,-3.589 5.044,-10.734 3.715,-16.075c4.908,-0.635 9.801,-1.39 14.688,-2.183c6.429,-1.044 12.405,-3.679 18.778,-5.045c16.237,-3.473 32.462,-7.291 48.946,-9.383c-1.475,0.772 -2.911,1.586 -4.129,2.834c-0.822,0.851 -1.09,2.406 0.093,3.145c2.885,1.799 5.728,1.439 8.839,0.43c3.453,-1.107 5.771,-2.686 8.256,-5.284c0.636,-0.665 0.95,-1.613 0.969,-2.555c7.434,-0.544 16.387,-0.586 22.779,2.301c-2.793,1.399 -6.406,3.598 -11.01,4.111c-6.485,0.724 -26.068,5.075 -36.014,8.931c0.326,-3.508 0.211,-7.55 -1.646,-9.096c-2.729,-2.278 -3.57,6.319 -3.829,8.897c-0.094,0.944 -0.204,1.914 -0.332,2.876c-2.232,0.996 -5.182,2.11 -8.541,3.278c1.838,-3.51 1.746,-7.581 -0.98,-11.037c-0.891,-1.135 -3.526,-1.481 -4.192,-0.255c-2.395,4.359 -1.69,10.197 -4.645,14.525c-2.948,0.931 -5.962,1.857 -8.898,2.747c0.078,-0.148 0.157,-0.293 0.233,-0.444c1.977,-3.949 3.788,-9.194 1.952,-13.425c-0.691,-1.601 -2.887,-2.138 -4.054,-0.688c-2.186,2.709 -2.517,5.988 -3.352,9.286c-0.625,2.502 -1.745,5.295 -3.095,7.769c-2.811,0.84 -5.371,1.606 -7.49,2.256c-0.737,0.226 -1.717,0.491 -2.908,0.789c2.584,-4.555 3.184,-10.611 0.229,-13.934c-0.984,-1.104 -3.02,-1.628 -4.024,-0.15c-1.946,2.865 -2.187,6.192 -3.278,9.421c-0.79,2.327 -2.186,4.574 -2.968,6.944c-6.662,1.43 -15.073,3.138 -24.073,4.941c0.473,-6.322 -1.757,-13.644 -4.74,-17.413c-0.872,-1.107 -2.968,-0.9 -3.141,0.697c-0.652,5.904 0.729,12.2 0.385,18.213c-5.97,1.19 -12.049,2.398 -17.927,3.575c1.488,-7.463 0.175,-15.744 -5.087,-18.615c-1.355,-0.73 -2.647,0.338 -3.04,1.571c-1.219,3.846 0.033,8.313 -0.096,12.292c-0.081,2.406 -0.513,4.547 -1.099,6.629c-2.907,0.589 -5.707,1.162 -8.365,1.712c0.343,-5.972 -0.636,-15.886 -6.921,-18.475c-1.148,-0.474 -2.426,0.141 -2.676,1.382c-1.054,5.224 1.441,10.93 1.942,16.128c0.081,0.832 0.103,1.695 0.069,2.561c-2.861,0.614 -5.421,1.18 -7.606,1.688c-0.079,-7.445 -4.086,-14.766 -13.668,-15.816c-2.123,-0.232 -3.725,1.057 -3.779,2.379c-0.169,3.819 3.183,7.723 4.689,11.307c0.7,1.669 1.178,3.388 1.463,5.132c-3.21,0.877 -6.871,1.85 -10.74,2.865c1.114,-8.662 -0.461,-17.245 -8.563,-17.575c-0.83,-0.03 -1.424,0.906 -1.37,1.644c0.203,2.469 1.168,4.484 2.09,6.758c1.247,3.063 0.505,6.974 0.076,10.128c-0.049,0.373 -0.109,0.746 -0.174,1.118c-2.864,0.744 -5.743,1.49 -8.556,2.222c0.037,-0.713 0.072,-1.413 0.108,-2.088c0.329,-5.92 -0.888,-12.177 -5.766,-16.038c-1.198,-0.941 -2.864,-1.324 -4.315,-0.732c-0.232,0.1 -0.462,0.192 -0.693,0.284c-1.334,0.553 -2.472,2.024 -2.216,3.542c0.446,2.585 1.778,3.182 3.239,5.1c1.715,2.25 1.634,6.21 1.866,8.884c0.081,0.957 0.097,1.988 0.103,3.051c-3.693,0.971 -7.076,1.872 -9.892,2.65c-0.217,-9.358 -3.274,-18.7 -10.715,-21.567c-2.576,-0.996 -5.086,1.736 -3.457,4.16c1.933,2.876 4.326,5.056 5.713,8.339c1.366,3.239 1.552,6.924 1.703,10.397c0.01,0.225 0.015,0.45 0.021,0.676c-8.283,3.094 -8.363,9.797 -8.019,14.199c0,0 1.244,4.066 9.163,6.066c3.185,0.804 4.425,0.571 5.373,0.036c0.542,0.899 1.058,1.789 1.477,2.671c1.028,2.156 1.65,4.441 2.057,6.793c0.416,2.395 0.322,5.088 1.965,7.031c0.856,1.003 2.056,1.35 3.25,0.639c5.556,-3.349 3.47,-12.3 -0.714,-19.119c1.874,0.009 4.622,-0.682 8.012,-1.855c2.422,3.225 4.635,6.702 7.76,9.22c1.299,1.047 3.062,0.293 3.426,-1.237c0.922,-3.749 -0.299,-7.743 -2.676,-11.288c2.644,-1.104 5.473,-2.332 8.425,-3.625c2.344,3.466 4.69,7.804 8.247,9.361c1.354,0.59 3.392,0.125 3.925,-1.429c1.487,-4.285 -0.679,-8.308 -3.48,-11.746c3.551,-1.55 7.186,-3.117 10.829,-4.621c3.413,3.474 5.4,7.673 9.719,10.352c1.007,0.623 2.697,-0.234 2.762,-1.427c0.257,-4.762 -1.771,-8.672 -4.704,-12.021c4.967,-1.891 9.826,-3.551 14.354,-4.768c2.935,-0.789 5.841,-1.626 8.704,-2.492c0.663,0.62 1.324,1.24 1.974,1.889c2.955,2.941 4.791,7.734 8.409,9.821c0.938,0.54 2.359,-0.006 2.751,-0.997c1.865,-4.656 -2.154,-9.17 -5.219,-12.26c-0.242,-0.246 -0.509,-0.469 -0.764,-0.703c6.535,-2.131 12.749,-4.349 18.44,-6.438c0.537,0.618 1.06,1.257 1.564,1.935c2.269,3.044 3.511,6.511 6.479,9.015c0.986,0.84 2.48,0.235 2.731,-0.99c0.872,-4.216 -1.152,-8.789 -4.45,-12.3c4.486,-1.67 8.528,-3.182 12.004,-4.403c2.515,2.656 5.665,4.895 8.262,7.366c2.589,2.467 4.703,5.341 7.289,7.777c-0.501,0.224 -1.001,0.453 -1.503,0.673c-1.768,0.772 -3.562,1.48 -5.366,2.167c-0.613,-1.812 -1.386,-3.548 -2.032,-5.043c-1.583,-3.672 -5.082,-8.435 -9.295,-9.022c-0.401,-0.061 -0.916,0.198 -0.945,0.648c-0.244,4.056 1.963,8.662 3.255,12.471c0.417,1.231 0.737,2.512 1.08,3.774c-5.252,1.771 -10.538,3.46 -15.719,5.41c-0.318,-0.636 -0.646,-1.254 -0.968,-1.84c-2.502,-4.55 -6.28,-8.528 -11.06,-10.653c-0.469,-0.215 -1.092,0.26 -0.845,0.778c1.804,3.915 3.952,7.609 5.522,11.626c0.302,0.775 0.552,1.632 0.789,2.522c-6.431,2.276 -12.989,4.225 -19.567,6.119c-3.929,-5.164 -10.787,-9.629 -18.849,-11.936c-1.202,-0.341 -2.694,0.692 -1.832,1.279c5.539,3.778 8.691,8.57 11.054,13.424c-13.165,3.824 -26.195,7.978 -38.215,14.685c-7.628,4.26 -15.473,10.458 -18.32,19.04c-2.495,7.521 0.104,16.303 5.897,21.566c0.008,0.013 0.014,0.025 0.021,0.038c1.954,3.258 5.717,8.317 8.721,13.866c0.011,0.02 0.022,0.041 0.033,0.061c4.073,8.36 9.988,15.706 14.387,23.963m-252.589,-86.594c0.009,0.011 0.017,0.024 0.026,0.035c-0.063,-0.025 -0.125,-0.052 -0.188,-0.077c0.054,0.014 0.109,0.032 0.162,0.042m346.339,-41.358c-1.96,-1.909 -4.289,-3.904 -6.809,-5.579c6.331,-1.826 16.023,-4.44 25.629,-6.91c1.068,0.693 2.085,1.398 2.984,2.483c1.79,2.162 2.772,4.727 5.136,6.342c1.006,0.69 2.91,0.434 3.002,-1.093c0.228,-3.732 -1.93,-6.803 -4.441,-9.422c-0.002,-0.002 -0.004,-0.004 -0.006,-0.006c5.476,-1.373 10.641,-2.621 14.806,-3.557c0.771,0.654 1.528,1.327 2.264,1.985c2.699,2.429 4.249,6.441 8.021,7.334c1.335,0.319 2.359,-0.711 2.7,-1.868c1.022,-3.442 -1.763,-6.781 -4.412,-9.225c0.895,-0.206 1.882,-0.456 2.963,-0.749c0.965,0.526 1.858,0.135 2.631,-0.743c14.29,-4.146 38.942,-12.946 48.442,-12.329c2.239,0.146 4.17,0.23 5.837,0.261c-0.237,1.17 0.022,2.43 0.855,3.334c-2.939,2.969 -6.676,5.337 -10.518,7.355c-0.798,-2.086 -2.278,-3.962 -4.024,-4.907c-1.555,-0.84 -3.283,-1.13 -4.979,-0.582c-1.138,0.363 -3.019,1.854 -2.401,3.287c0.394,0.938 0.824,1.43 1.292,2.029c0.179,0.235 0.357,0.463 0.524,0.707c0.06,0.109 0.151,0.273 0.258,0.482c0.024,0.046 0.057,0.132 0.136,0.294c0.373,0.859 0.729,1.711 1.124,2.537c-0.37,0.167 -0.738,0.333 -1.099,0.497c-3.089,1.401 -6.245,2.656 -9.441,3.817c-1.347,-5.556 -4.79,-10.729 -8.285,-8.165c-0.633,0.466 -1.219,1.42 -1.034,2.257c0.343,1.5 0.792,1.783 1.353,3.264c0.577,1.527 0.909,3.216 1.267,4.805c0.008,0.034 0.015,0.071 0.023,0.106c-2.408,0.77 -4.829,1.502 -7.26,2.199c-1.522,-4.22 -4.101,-8.105 -7.92,-9.604c-1.137,-0.445 -2.035,0.528 -1.764,1.632c0.718,2.957 2.271,5.708 3.206,8.612c0.115,0.356 0.222,0.715 0.323,1.074c-2.116,0.574 -4.232,1.14 -6.342,1.699c-3.674,0.972 -7.38,1.862 -11.082,2.771c-0.079,-0.192 -0.158,-0.385 -0.236,-0.568c-1.786,-4.238 -5.293,-8.467 -9.897,-9.621c-0.988,-0.249 -1.946,0.912 -1.527,1.839c1.547,3.447 3.343,6.58 4.555,10.15c-3.975,1.05 -7.922,2.192 -11.792,3.559c-0.705,0.249 -1.405,0.52 -2.106,0.786c-2.842,-3.687 -8.06,-6.835 -12.776,-9.225c-1.457,-0.74 -3.85,0.638 -2.59,1.628c4.097,3.218 5.159,7.325 6.668,11.248c-2.434,1.103 -4.857,2.24 -7.275,3.373c-0.744,-3.724 -3.117,-6.799 -5.983,-9.593m120.293,-37.588c-2.209,-13.09 -21.58,-14.921 -32.065,-15.058c-19.098,-0.256 -37.761,4.725 -56.283,8.643c-26.211,5.536 -53.092,6.962 -79.444,11.926c-21.749,4.099 -51.843,3.406 -75.36,9.655l-0.002,0c-10.124,0.461 -18.505,4.283 -24.402,-4.459c-4.981,-7.399 -5.273,-17.273 -5.894,-25.948c-0.911,-12.691 -1.465,-26.679 -1.795,-39.391c-0.331,-12.612 -3.695,-30.419 -6.903,-42.557c-6.594,-24.952 -9.722,-43.762 -12.512,-69.478c-1.278,-11.763 -4.247,-23.051 -7.201,-34.606c-2.693,-10.566 -4.962,-23.386 -10.876,-32.676c-0.056,-0.172 -0.145,-0.31 -0.258,-0.419l0,-0.001c-0.351,-0.533 -1.675,-1.331 -2.284,-1.397c-11.068,-1.193 -13.933,12.952 -16.824,22.431c-4.764,15.629 -8.299,36.013 -10.129,52.194c-1.961,17.394 -2.925,28.434 -5.763,45.704c-1.858,11.316 -4.193,26.098 -4.851,37.569c-0.994,17.379 -2.302,36.536 -4.299,53.773c-1.197,10.351 -4.579,32.081 -18.968,32.93c-6.261,-0.392 -16.144,1.957 -22.358,1.125c-12.534,-1.676 -29.361,-5.99 -41.947,-7.098c-23.65,-2.094 -45.381,-8.05 -68.304,-13.993c-20.691,-5.36 -38.404,-7.555 -59.252,-12.281c-14.166,-3.207 -38.409,-9.358 -51.809,-0.868c-0.087,0.045 -0.167,0.094 -0.242,0.148c-0.028,0.018 -0.057,0.033 -0.085,0.051c-0.034,0.023 -0.054,0.052 -0.084,0.077c-0.028,0.025 -0.056,0.048 -0.082,0.074c-0.043,0.045 -0.085,0.091 -0.118,0.141c-0.012,0.015 -0.025,0.028 -0.036,0.043c-0.009,0.011 -0.022,0.013 -0.03,0.025c-0.007,0.012 -0.013,0.024 -0.02,0.035c-0.046,0.065 -0.082,0.136 -0.119,0.206c-2.372,4.011 -1.831,8.201 -0.239,12.059c0.567,1.891 1.129,3.783 1.706,5.671c1.906,6.216 5.716,12.209 9.589,17.357c2.148,2.858 4.594,5.151 7.252,7.041c2.79,2.992 6.005,5.6 9.74,8.118c8.87,5.982 19.182,9.507 29.156,13.128c12.786,4.638 25.211,10.085 37.323,16.258c12.005,6.123 23.585,12.997 35.388,19.479c12.07,6.63 25.043,11.486 37.938,16.223c17.067,6.265 47.62,15.036 51.071,36.225c0.106,0.653 0.349,1.195 0.68,1.635c-1.614,2.81 -3.518,5.476 -5.35,7.978c-6.9,9.411 -14.985,17.767 -21.382,27.574c-16.364,25.105 -25.62,53.904 -38.412,80.811c-10.403,21.865 -25.035,39.572 -38.822,59.161c-6.423,9.117 -20.832,29.784 -13.227,41.791c-1.053,2.372 -0.178,4.574 1.484,5.914c0.035,0.068 0.082,0.133 0.149,0.189c15.748,12.888 41.242,4.653 54.305,-8.012c8.207,-7.955 15.278,-17.023 25.219,-22.953c11.097,-6.609 21.504,-13.972 30.22,-23.564c9.382,-10.332 15.265,-23.284 24.621,-33.652c8.691,-9.636 18.202,-17.895 25.061,-29.07c12.623,-20.577 24.869,-48.671 51.922,-51.06c1.127,0.901 2.254,1.803 3.377,2.718c2.843,2.317 5.61,4.727 8.313,7.209c6.4,8.949 11.155,19.011 16.354,28.664c5.44,10.095 11.789,18.834 19.799,27.032c16.588,16.984 33.481,33.875 50.643,50.297c17.081,16.356 35.563,33.578 55.833,45.924c0.326,0.196 0.672,0.216 0.991,0.121c10.081,7.486 21.716,12.767 34.22,10.806c0.484,1.471 2.288,2.427 3.799,1.325c11.425,-8.327 -0.996,-32.858 -4.949,-42.294c-8.419,-20.104 -19.23,-37.872 -33.211,-54.618c-15.886,-19.033 -32.549,-36.861 -43.092,-59.635c-5.194,-11.221 -11.006,-34.292 -16.265,-45.496c-3.582,-7.634 -6.488,-9.987 -9.638,-13.564c-0.235,-0.434 -0.502,-0.89 -0.812,-1.378c-4.126,-6.485 -8.236,-11.582 -11.773,-17.939c-1.803,-3.732 -3.583,-6.999 -4.151,-10.289c0.767,-3.01 3.94,-5.826 5.912,-8c5.121,-5.64 11.683,-8.166 18.756,-10.67c8.382,-2.962 17.14,-4.866 25.639,-7.479c9.77,-2.998 19.225,-7.239 28.658,-11.146c18.262,-7.559 36.347,-15.541 54.569,-23.207c0.676,-0.284 1.357,-0.549 2.033,-0.829c8.727,-1.864 17.696,-2.875 26.379,-4.704c19.238,-4.054 35.707,-15.062 53.676,-22.502c9.706,-4.019 24.743,-12.327 20.147,-25.167" style="fill:#3fae2a;fill-rule:nonzero;"/><path d="M136.558,570.079c-1.586,-0.14 -3.163,-0.29 -4.752,-0.407c-3.524,-0.322 -6.851,1.971 -6.556,5.196c0.286,3.237 3.977,4.898 7.383,3.935c1.537,-0.406 3.068,-0.849 4.6,-1.267c4.219,-1.156 3.685,-7.059 -0.675,-7.457" style="fill:#3fae2a;fill-rule:nonzero;"/><path d="M59.347,224.955c-2.015,-0.926 -3.835,-2.292 -5.92,-2.992c-1.181,-0.396 -2.309,-0.919 -3.504,-1.265c-1.112,-0.332 -1.977,-0.133 -3.069,-0.222c-1.008,-0.065 -1.65,0.992 -0.995,1.958c0.788,1.172 1.221,2.148 2.401,2.967c1.28,0.884 2.595,1.34 4.034,1.771c2.568,0.78 4.935,-0.349 7.083,-1.523c0.241,-0.137 0.282,-0.551 -0.03,-0.694" style="fill:#3fae2a;fill-rule:nonzero;"/><path d="M342.078,336.776c-0.051,0.004 -0.106,0.007 -0.172,0c-1.104,-0.129 -2.314,-0.673 -3.021,-1.541c-0.336,-0.405 -0.944,-0.073 -0.802,0.426c0.162,0.562 0.398,1.073 0.667,1.569c-0.144,0.074 -0.267,0.188 -0.307,0.371c-0.105,0.507 -0.244,0.998 -0.385,1.492c-2.572,-1.548 -3.783,-4.952 -5.544,-7.247c-0.278,-0.371 -0.94,-0.23 -0.996,0.234c-0.004,-0.006 -0.014,-0.005 -0.019,-0.005c-0.105,0.871 -0.06,1.772 0.1,2.687c-0.075,1.064 -0.262,2.164 -0.461,3.245c-2.802,-2.888 -3.508,-7.305 -4.792,-11.039c-0.461,-1.369 -2.816,-1.271 -2.941,0.268c-0.148,1.898 -0.278,3.807 -0.392,5.716c-0.087,-0.072 -0.172,-0.145 -0.259,-0.217c-0.196,-0.475 -0.37,-0.957 -0.473,-1.451c-0.283,-1.33 0.069,-2.541 -0.087,-3.822c-0,-0.163 -0.017,-0.319 -0.07,-0.478c-0.017,-0.06 -0.01,-0.119 -0.024,-0.177c-0.012,0.016 -0.03,0.029 -0.046,0.041c-0.353,-0.792 -1.305,-1.371 -2.219,-0.733c-1.196,0.845 -1.657,2.223 -1.721,3.674c-0.437,-0.194 -0.883,-0.376 -1.353,-0.533c-0.342,-0.114 -0.671,-0.158 -0.992,-0.172c-0.059,-0.76 -0.096,-1.521 -0.125,-2.283c2.008,-1.216 3.621,-2.833 4.839,-4.732c8.729,2.663 24.256,-0.833 22.402,12.148c-0.139,0.973 -0.42,1.821 -0.807,2.559m-38.606,25.169c-5.418,-0.517 -8.65,-5.78 -8.272,-10.857c0.21,-2.814 1.392,-5.622 2.833,-8.226c1.914,-1.518 3.69,-3.221 5.641,-4.706c0.04,-0.03 0.079,-0.054 0.119,-0.082c0.153,-0.072 0.295,-0.158 0.426,-0.256c0.883,-0.419 1.557,-0.061 2.132,0.658c-0.864,2.942 -1.273,5.972 -2.398,8.868c-0.554,1.427 0.943,2.725 2.254,1.881c1.184,-0.758 2.175,-1.628 3.042,-2.606c0.158,1.328 0.193,2.667 -0.024,3.936c-1.234,1.379 -2.058,3.29 -2.013,4.735c0.047,1.374 1.843,1.76 2.667,0.827c1.076,-1.215 1.725,-2.604 2.083,-4.078c0.102,-0.072 0.188,-0.114 0.265,-0.14c-0.186,5.185 -2.798,10.611 -8.755,10.046m-7.729,-34.474c-0.939,-0.021 -1.045,1.182 -0.534,1.705c0.307,0.534 0.616,1.077 0.923,1.618c-2.689,0.173 -5.259,-0.519 -7.805,-1.536c-1.287,-0.519 -2.545,1.216 -1.347,2.123c1.506,1.152 2.938,2.181 4.277,3.549c3.454,3.528 -4.866,-0.558 -5.332,-0.749c-1.611,-0.663 -3.123,-1.579 -4.733,-2.263c-0.88,-0.376 -1.75,0.62 -1.19,1.426c1.304,1.877 2.658,3.706 4.004,5.541c-3.123,-1.162 -5.997,-3.754 -8.228,-5.846c-0.686,-0.643 -2.015,0.22 -1.55,1.105c0.041,0.073 0.083,0.147 0.123,0.22c-0,0 -0,0.002 -0.004,0.002c0.04,0.071 0.083,0.14 0.119,0.201c1,1.832 2.142,3.578 3.169,5.393c-3.284,-1.061 -5.895,-4.054 -6.768,-7.357c-0.074,-0.27 -0.485,-0.257 -0.588,-0.022c-0.787,1.797 -0.562,3.531 0.266,5.087c-0.061,-0.051 -0.126,-0.096 -0.186,-0.148c-3.827,-3.316 -4.373,-9.16 -0.469,-12.539c6.166,-5.336 14.009,-0.207 20.805,-1.682c1.045,0.444 2.096,0.804 3.141,1.067c1.903,1.772 3.819,2.542 5.963,2.24c-0.134,0.405 -0.225,0.841 -0.272,1.309c-1.216,-0.254 -2.418,-0.418 -3.784,-0.444m-16.631,-32.408c-0.249,3.683 0.123,7.122 1.119,10.382c-1.134,-2.004 -1.817,-4.444 -2.275,-6.631c-0.613,-2.886 -0.094,-4.326 1.066,-6.024c0.542,0.029 1.1,0.035 1.696,0.037c3.837,0.02 6.27,-0.115 9.797,1.793c4.193,2.272 6.753,5.788 8.904,9.631c-0.349,0.7 -0.428,1.576 -0.054,2.583c0.073,0.199 0.141,0.399 0.211,0.598c-0.731,0.553 -1.229,1.402 -1.138,2.459c0.111,1.311 0.145,2.46 -0.09,3.304c-0.963,-1.243 -1.97,-2.428 -2.829,-3.525c-1.231,-1.56 -3.425,-0.937 -3.926,0.881c-0.794,2.894 -0.208,4.314 -2.207,0.451c-1.57,-3.025 -0.117,-7.939 -0.651,-11.311c-0.265,-1.66 -2.333,-2.492 -3.5,-1.097c-1.349,1.626 -2.056,3.47 -2.319,5.399c-0.892,-2.69 -1.346,-5.556 -1.79,-8.84c-0.149,-1.087 -1.936,-1.284 -2.014,-0.09m30.016,12.331c1.569,-5.854 3.503,-10.241 7.77,-14.695c2.125,-2.22 8.909,-7.434 12.47,-5.293c-1.209,-0.058 -2.338,0.839 -2.253,2.292c0.092,1.532 0.276,3.044 0.402,4.576c0.104,1.26 0.094,2.482 -0.038,3.735c-0.218,2.026 -1.075,0.155 -1.472,-1.319c-0.053,-0.523 -0.119,-1.048 -0.191,-1.58c-0.172,-1.455 -2.422,-1.648 -2.632,-0.116c-0.151,1.083 -0.067,2.329 0.247,3.475c0.054,2.1 -0.163,4.229 -0.643,6.273c-0.356,-0.337 -0.709,-0.701 -1.046,-1.087c-0.161,-2.091 -0.488,-4.14 -0.983,-6.027c-0.314,-1.213 -2.135,-1.418 -2.846,-0.486c-1.482,1.967 -1.102,4.314 0.057,6.456c-0.021,1.814 -0.17,3.62 -0.324,5.432c-0.247,0.144 -0.494,0.287 -0.742,0.426c-0.217,-0.616 -0.374,-1.254 -0.456,-1.893c0.145,-0.983 0.188,-1.975 0.04,-2.968c-0.315,-2.232 -3.424,-1.893 -3.426,0.303c0.186,1.724 -0.622,3.633 -1.264,5.517c-0.806,-0.028 -1.601,0.15 -2.353,0.626c-0.249,-0.729 -0.538,-1.434 -0.856,-2.123c-0.027,-0.222 -0.048,-0.444 -0.086,-0.665c0.279,-0.167 0.513,-0.443 0.625,-0.859m17.148,-5.229l-0,-0.005c0.002,0 0.003,0 0.004,0.001c-0.001,0.001 -0.003,0.003 -0.004,0.004m15.969,18.201c-5.859,-3.688 -13.116,-3.23 -19.9,-2.226c0.155,-0.474 0.298,-0.954 0.416,-1.445c0.23,-0.948 -0.031,-1.866 -0.571,-2.591c5.559,-3.511 10.573,-8.846 13.186,-14.381c2.236,-4.719 2.95,-12.101 -1.189,-16.059c-9.08,-8.687 -26.658,5.773 -28.469,17.58c-2.443,-4.008 -6.012,-7.571 -9.294,-10.173c-5.677,-4.503 -10.84,-4.626 -16.902,-3.297c-9.291,-4.023 -7.501,13.445 -6.249,17.594c0.983,3.242 3.343,6.863 6.436,10.097c-5.885,0.113 -11.764,1.745 -15.246,5.535c-5.159,5.616 -4.73,13.194 -0.396,19.166c4.553,6.258 13.821,8.401 21.016,6.187c1.52,-0.469 3.192,-1.143 4.891,-1.99c-0.815,2.157 -1.386,4.395 -1.562,6.73c-0.535,7.171 3.787,13.703 10.347,16.413c6.024,2.486 12.703,0.469 16.569,-4.65c6.466,-8.567 1.102,-17.77 0.133,-26.94c0.015,-0.014 0.029,-0.028 0.043,-0.043c6.917,3.15 10.678,10.826 19.101,11.316c6.399,0.367 11.896,-4.075 13.942,-9.93c2.213,-6.307 -0.744,-13.402 -6.302,-16.893" style="fill:#3fae2a;fill-rule:nonzero;"/></svg>